<svg width="24" height="24" viewBox="0 0 24 24" fill="none" xmlns="http://www.w3.org/2000/svg">
<g id="alarm-clock">
<path id="Vector (Stroke)" fill-rule="evenodd" clip-rule="evenodd" d="M6.31375 1.41884C6.63476 1.86825 6.53067 2.4928 6.08125 2.81381L2.58125 5.31381C2.13184 5.63482 1.50729 5.53073 1.18628 5.08132C0.865274 4.6319 0.969366 4.00735 1.41878 3.68634L4.91878 1.18634C5.36819 0.865335 5.99274 0.969427 6.31375 1.41884ZM17.6863 1.41884C18.0073 0.969427 18.6318 0.865335 19.0813 1.18634L22.5813 3.68634C23.0307 4.00735 23.1348 4.6319 22.8138 5.08132C22.4927 5.53073 21.8682 5.63482 21.4188 5.31381L17.9188 2.81381C17.4694 2.4928 17.3653 1.86825 17.6863 1.41884ZM1.83333 13.0001C1.83333 7.38517 6.38508 2.83342 12 2.83342C17.6149 2.83342 22.1667 7.38517 22.1667 13.0001C22.1667 18.615 17.6149 23.1668 12 23.1668C6.38508 23.1668 1.83333 18.615 1.83333 13.0001ZM12 4.83342C7.48965 4.83342 3.83333 8.48974 3.83333 13.0001C3.83333 17.5104 7.48965 21.1668 12 21.1668C16.5103 21.1668 20.1667 17.5104 20.1667 13.0001C20.1667 8.48974 16.5103 4.83342 12 4.83342ZM11.8798 6.67685C12.4321 6.67691 12.8798 7.12468 12.8797 7.67696L12.8792 12.7671L16.4724 16.3603C16.8629 16.7508 16.8629 17.384 16.4724 17.7745C16.0818 18.165 15.4487 18.165 15.0582 17.7745L11.172 13.8884C10.9844 13.7008 10.8791 13.4464 10.8791 13.1811L10.8797 7.67674C10.8798 7.12446 11.3275 6.67679 11.8798 6.67685Z" fill="#6B7280"/>
</g>
</svg>
