<svg width="20" height="20" viewBox="0 0 20 20" fill="none" xmlns="http://www.w3.org/2000/svg">
<g id="building-two">
<path id="Vector (Stroke)" fill-rule="evenodd" clip-rule="evenodd" d="M8.36508 0.927195C8.64069 0.783697 8.97324 0.805459 9.2278 0.98365L13.3945 3.90032C13.6172 4.05626 13.7499 4.31108 13.7499 4.58301V9.57083L16.3176 11.4049C16.5366 11.5613 16.6666 11.8139 16.6666 12.083V17.4997H18.3333C18.7935 17.4997 19.1666 17.8728 19.1666 18.333C19.1666 18.7932 18.7935 19.1663 18.3333 19.1663H1.66659C1.20635 19.1663 0.833252 18.7932 0.833252 18.333C0.833252 17.8728 1.20635 17.4997 1.66659 17.4997H3.74992V8.33301C3.74992 8.06108 3.88259 7.80626 4.10537 7.65032L7.91658 4.98246V1.66634C7.91658 1.35561 8.08947 1.07069 8.36508 0.927195ZM9.58325 5.42654C9.58335 5.41926 9.58335 5.41198 9.58325 5.40469V3.26689L12.0833 5.01689V9.99968C12.0833 10.2688 12.2132 10.5214 12.4322 10.6778L14.9999 12.5119V17.4997H9.58325V5.42654ZM7.91658 7.01689L5.41658 8.76689V17.4997H7.91658V7.01689Z" fill="#6B7280"/>
</g>
</svg>
