<svg width="12" height="12" viewBox="0 0 12 12" fill="none" xmlns="http://www.w3.org/2000/svg">
<g id="copy">
<path id="Vector (Stroke)" fill-rule="evenodd" clip-rule="evenodd" d="M3.75 1.5C3.61192 1.5 3.5 1.61192 3.5 1.75V2.5H8.25C8.94036 2.5 9.5 3.05964 9.5 3.75V8.5H10.25C10.3881 8.5 10.5 8.38808 10.5 8.25V1.75C10.5 1.61192 10.3881 1.5 10.25 1.5H3.75ZM9.5 9.5H10.25C10.9404 9.5 11.5 8.94037 11.5 8.25V1.75C11.5 1.05965 10.9404 0.5 10.25 0.5H3.75C3.05963 0.5 2.5 1.05965 2.5 1.75V2.5H1.75C1.05964 2.5 0.5 3.05964 0.5 3.75V10.25C0.5 10.9404 1.05964 11.5 1.75 11.5H8.25C8.94036 11.5 9.5 10.9404 9.5 10.25V9.5ZM1.75 3.5C1.61193 3.5 1.5 3.61193 1.5 3.75V10.25C1.5 10.3881 1.61193 10.5 1.75 10.5H8.25C8.38807 10.5 8.5 10.3881 8.5 10.25V3.75C8.5 3.61193 8.38807 3.5 8.25 3.5H1.75Z" fill="#6B7280"/>
</g>
</svg>
