<svg width="24" height="24" viewBox="0 0 24 24" fill="none" xmlns="http://www.w3.org/2000/svg">
<g id="globe">
<g id="Vector">
<path d="M19.5995 1.27285C19.1979 0.89372 18.565 0.911931 18.1859 1.31353C17.8068 1.71512 17.825 2.34802 18.2266 2.72715C19.9356 4.34054 21 6.62411 21 9.1579C21 14.0413 17.0413 18 12.1579 18C9.62412 18 7.34056 16.9356 5.72715 15.2266C5.34802 14.825 4.71511 14.8068 4.31352 15.1859C3.91193 15.565 3.89372 16.1979 4.27286 16.5995C5.99963 18.4286 8.35855 19.6582 11 19.9389V21H9C8.44772 21 8 21.4477 8 22C8 22.5523 8.44772 23 9 23H15C15.5523 23 16 22.5523 16 22C16 21.4477 15.5523 21 15 21H13V19.9678C18.5944 19.538 23 14.8625 23 9.1579C23 6.05119 21.6921 3.24833 19.5995 1.27285Z" fill="#FF6839"/>
<path fill-rule="evenodd" clip-rule="evenodd" d="M12 1C7.58172 1 4 4.58172 4 9C4 13.4183 7.58172 17 12 17C16.4183 17 20 13.4183 20 9C20 4.58172 16.4183 1 12 1ZM6 9C6 5.68629 8.68629 3 12 3C15.3137 3 18 5.68629 18 9C18 12.3137 15.3137 15 12 15C8.68629 15 6 12.3137 6 9Z" fill="#FF6839"/>
</g>
<path id="Vector_2" d="M12 3C8.68629 3 6 5.68628 6 9C6 12.3137 8.68629 15 12 15C15.3137 15 18 12.3137 18 9C18 5.68628 15.3137 3 12 3Z" fill="#FFEBE5"/>
</g>
</svg>
