<svg width="24" height="24" viewBox="0 0 24 24" fill="none" xmlns="http://www.w3.org/2000/svg">
<g id="chinese-medicine">
<path id="Vector (Stroke)" fill-rule="evenodd" clip-rule="evenodd" d="M17.3498 3.06028C17.1775 3.11793 16.9787 3.25693 16.8214 3.58814C16.5335 4.19435 15.662 5.99993 14.209 9.00033H16.2378C17.546 6.30557 18.3211 4.71241 18.5611 4.22509C18.7182 3.90617 18.557 3.32404 18.0977 3.12778M16.7958 11.0003C16.8403 11.0033 16.8848 11.0033 16.9289 11.0003H20.9437C20.5648 14.3467 18.3065 17.1386 15.2245 18.308C14.869 18.4429 14.6375 18.699 14.4934 18.9276C14.3504 19.1544 14.2577 19.4088 14.1929 19.6521C14.1264 19.9015 14.0772 20.1861 14.0422 20.5003H9.87859C9.805 20.1285 9.71843 19.7969 9.61573 19.5125C9.52694 19.2666 9.41377 19.0208 9.26211 18.8056C9.11188 18.5925 8.88619 18.3567 8.55744 18.222C5.58711 17.0055 3.42618 14.2671 3.05627 11.0003H12.4435C12.5528 11.0185 12.6629 11.018 12.7696 11.0003H16.7958ZM11.9868 9.00033C13.6957 5.47264 14.704 3.38456 15.0147 2.73028C15.3821 1.95657 15.9782 1.41016 16.7153 1.16359C17.4385 0.921657 18.2047 0.998645 18.8834 1.28858C20.3891 1.93186 21.0231 3.75279 20.3554 5.10868C20.1452 5.53541 19.5143 6.83166 18.4611 9.00033H22C22.5523 9.00033 23 9.44805 23 10.0003C23 14.5713 20.1602 18.4757 16.1464 20.0948C16.1399 20.1153 16.1328 20.1393 16.1254 20.1672C16.0543 20.4337 15.997 20.8747 15.9771 21.5306C15.9607 22.0709 15.518 22.5003 14.9775 22.5003H9.028C8.52648 22.5003 8.10253 22.1288 8.03666 21.6317C7.94683 20.9536 7.84069 20.4855 7.7346 20.1917C7.70505 20.1099 7.67937 20.0526 7.66005 20.0146C3.74919 18.3497 1 14.4975 1 10.0003C1 9.44805 1.44772 9.00033 2 9.00033H11.9868ZM17.3498 3.06028C17.536 2.99798 17.7938 2.99794 18.0977 3.12778L17.3498 3.06028ZM6.93197 12.5545C7.46055 12.3944 8.01881 12.6932 8.17888 13.2218C8.33309 13.731 8.52359 14.1058 8.7296 14.3752C8.95857 14.6747 9.24958 14.9637 9.61136 15.2393C10.0507 15.574 10.1355 16.2014 9.80081 16.6407C9.46611 17.0801 8.83866 17.1649 8.39934 16.8302C7.91253 16.4593 7.49014 16.0469 7.14082 15.5901C6.75533 15.0859 6.47021 14.48 6.26472 13.8014C6.10465 13.2728 6.40339 12.7146 6.93197 12.5545Z" fill="#26B246"/>
<path id="Vector (Stroke)_2" fill-rule="evenodd" clip-rule="evenodd" d="M16.7957 11C16.8402 11.003 16.8847 11.003 16.9288 11H20.9436C20.5647 14.3463 18.3064 17.1382 15.2244 18.3076C14.8689 18.4426 14.6374 18.6987 14.4933 18.9273C14.3503 19.1541 14.2576 19.4084 14.1927 19.6517C14.1263 19.9012 14.0771 20.1857 14.0421 20.5H9.87848C9.80488 20.1282 9.71832 19.7966 9.61561 19.5121C9.52683 19.2662 9.41366 19.0204 9.262 18.8053C9.11177 18.5922 8.88608 18.3563 8.55732 18.2217C5.587 17.0052 3.42607 14.2668 3.05615 11H12.4434C12.5527 11.0182 12.6628 11.0177 12.7694 11H16.7957ZM6.93186 12.5542C7.46043 12.3941 8.0187 12.6928 8.17876 13.2214C8.33297 13.7306 8.52348 14.1055 8.72948 14.3749C8.95846 14.6743 9.24947 14.9633 9.61125 15.2389C10.0506 15.5736 10.1354 16.2011 9.80069 16.6404C9.466 17.0797 8.83854 17.1645 8.39922 16.8299C7.91241 16.459 7.49003 16.0466 7.14071 15.5897C6.75521 15.0855 6.4701 14.4797 6.26461 13.8011C6.10454 13.2725 6.40328 12.7142 6.93186 12.5542Z" fill="#E5FFEB"/>
</g>
</svg>
