<svg width="42" height="42" viewBox="0 0 42 42" fill="none" xmlns="http://www.w3.org/2000/svg">
<path d="M2 21C2 10.5066 10.5066 2 21 2C31.4934 2 40 10.5066 40 21C40 31.4934 31.4934 40 21 40C10.5066 40 2 31.4934 2 21Z" fill="#FF6839"/>
<path d="M2 21C2 10.5066 10.5066 2 21 2C31.4934 2 40 10.5066 40 21C40 31.4934 31.4934 40 21 40C10.5066 40 2 31.4934 2 21Z" stroke="#F9FAFB" stroke-width="3"/>
<path fill-rule="evenodd" clip-rule="evenodd" d="M24.5268 11.8335C24.77 11.8334 25.0033 11.9301 25.1753 12.1021L28.5233 15.4517C28.8811 15.8096 28.8811 16.3898 28.5233 16.7477L19.0437 26.2315C18.8718 26.4035 18.6386 26.5002 18.3954 26.5002H15.0417C14.5354 26.5002 14.125 26.0898 14.125 25.5835V22.2468C14.125 22.0039 14.2214 21.7709 14.3931 21.599L23.8784 12.1024C24.0503 11.9303 24.2835 11.8335 24.5268 11.8335ZM24.5272 14.0471L15.9584 22.6262V24.6668H18.0156L26.5789 16.0997L24.5272 14.0471ZM12.2917 29.2502C12.2917 28.7439 12.7021 28.3335 13.2084 28.3335H29.7084C30.2146 28.3335 30.625 28.7439 30.625 29.2502C30.625 29.7564 30.2146 30.1668 29.7084 30.1668H13.2084C12.7021 30.1668 12.2917 29.7564 12.2917 29.2502Z" fill="#F9FAFB"/>
</svg>
