<svg width="20" height="20" viewBox="0 0 20 20" fill="none" xmlns="http://www.w3.org/2000/svg">
<path d="M3.33317 1.66666C2.4127 1.66666 1.6665 2.41285 1.6665 3.33332V6.66666C1.6665 7.12689 2.0396 7.49999 2.49984 7.49999C2.96007 7.49999 3.33317 7.12689 3.33317 6.66666V3.33332H6.6665C7.12674 3.33332 7.49984 2.96023 7.49984 2.49999C7.49984 2.03975 7.12674 1.66666 6.6665 1.66666H3.33317Z" fill="#FF6839"/>
<path d="M3.33317 13.3333C3.33317 12.8731 2.96007 12.5 2.49984 12.5C2.0396 12.5 1.6665 12.8731 1.6665 13.3333V16.6667C1.6665 17.5872 2.4127 18.3333 3.33317 18.3333H6.6665C7.12674 18.3333 7.49984 17.9602 7.49984 17.5C7.49984 17.0398 7.12674 16.6667 6.6665 16.6667H3.33317V13.3333Z" fill="#FF6839"/>
<path d="M17.4998 12.5C17.9601 12.5 18.3332 12.8731 18.3332 13.3333V16.6667C18.3332 17.5871 17.587 18.3333 16.6665 18.3333H13.3332C12.8729 18.3333 12.4998 17.9602 12.4998 17.5C12.4998 17.0398 12.8729 16.6667 13.3332 16.6667H16.6665V13.3333C16.6665 12.8731 17.0396 12.5 17.4998 12.5Z" fill="#FF6839"/>
<path d="M13.3332 1.66666C12.8729 1.66666 12.4998 2.03975 12.4998 2.49999C12.4998 2.96023 12.8729 3.33332 13.3332 3.33332H16.6665V6.66666C16.6665 7.12689 17.0396 7.49999 17.4998 7.49999C17.9601 7.49999 18.3332 7.12689 18.3332 6.66666V3.33332C18.3332 2.41286 17.587 1.66666 16.6665 1.66666H13.3332Z" fill="#FF6839"/>
<path d="M8.74984 9.99999C8.74984 10.6903 9.30948 11.25 9.99984 11.25C10.6902 11.25 11.2498 10.6903 11.2498 9.99999C11.2498 9.30963 10.6902 8.74999 9.99984 8.74999C9.30948 8.74999 8.74984 9.30963 8.74984 9.99999Z" fill="#FF6839"/>
<path fill-rule="evenodd" clip-rule="evenodd" d="M4.99984 9.99999C4.99984 7.23857 7.23841 4.99999 9.99984 4.99999C12.7613 4.99999 14.9998 7.23857 14.9998 9.99999C14.9998 12.7614 12.7613 15 9.99984 15C7.23841 15 4.99984 12.7614 4.99984 9.99999ZM9.99984 6.66666C8.15889 6.66666 6.6665 8.15904 6.6665 9.99999C6.6665 11.8409 8.15889 13.3333 9.99984 13.3333C11.8408 13.3333 13.3332 11.8409 13.3332 9.99999C13.3332 8.15904 11.8408 6.66666 9.99984 6.66666Z" fill="#FF6839"/>
</svg>
