<svg width="32" height="32" viewBox="0 0 32 32" fill="none" xmlns="http://www.w3.org/2000/svg">
<g id="folder-upload">
<path id="Vector" d="M12.6668 4C13.0625 4 13.4378 4.17576 13.6911 4.47975L16.6255 8H28.0002C29.406 8 30.5577 9.08782 30.6595 10.4676L30.6668 10.6667V26.6667C30.6668 28.1394 29.4729 29.3333 28.0002 29.3333H4.00016C2.5274 29.3333 1.3335 28.1394 1.3335 26.6667V6.66667C1.3335 5.19391 2.5274 4 4.00016 4H12.6668ZM12.0415 6.66667H4.00016V26.6667H28.0002V10.6667H16.0002C15.6045 10.6667 15.2292 10.4909 14.9759 10.1869L12.0415 6.66667ZM15.2854 12.8743L15.3007 12.8645C15.3212 12.8519 15.3419 12.8398 15.3629 12.8284C15.3882 12.8147 15.4145 12.8015 15.4413 12.7891C15.4596 12.7806 15.4778 12.7727 15.4961 12.7652C15.5241 12.7538 15.5528 12.7432 15.5819 12.7336C15.6051 12.726 15.6288 12.7189 15.6525 12.7125C15.6771 12.7058 15.702 12.6999 15.7272 12.6946C15.7533 12.6893 15.7791 12.6848 15.805 12.6809C15.8289 12.6773 15.8537 12.6744 15.8788 12.6721C15.9113 12.6692 15.9433 12.6675 15.9754 12.6669C15.9831 12.6667 15.9916 12.6667 16.0002 12.6667L16.0261 12.6669C16.0568 12.6675 16.0875 12.6692 16.1182 12.6719L16.0002 12.6667C16.0677 12.6667 16.134 12.6717 16.1988 12.6814C16.2211 12.6848 16.2442 12.6889 16.2672 12.6935C16.2972 12.6995 16.3261 12.7064 16.3546 12.7143C16.375 12.72 16.3955 12.7262 16.4159 12.7328C16.4426 12.7415 16.4689 12.7511 16.4949 12.7615C16.5182 12.7708 16.5413 12.7808 16.5641 12.7914C16.592 12.8045 16.6192 12.8184 16.6459 12.8332C16.6618 12.8419 16.6781 12.8513 16.6942 12.8612C16.7285 12.8823 16.7617 12.9047 16.7937 12.9284C16.8017 12.9342 16.8095 12.9402 16.8173 12.9462C16.8264 12.9534 16.8302 12.9565 16.8341 12.9596L16.943 13.0572L21.6096 17.7239C22.1303 18.2446 22.1303 19.0888 21.6096 19.6095C21.129 20.0901 20.3727 20.1271 19.8496 19.7204L19.724 19.6095L17.3335 17.22V23.3333C17.3335 24.0697 16.7365 24.6667 16.0002 24.6667C15.3164 24.6667 14.7528 24.1519 14.6758 23.4888L14.6668 23.3333V17.2213L12.2774 19.6188C11.7972 20.1 11.041 20.1378 10.5175 19.7317L10.3917 19.6209C9.91056 19.1408 9.87274 18.3845 10.2789 17.861L10.3896 17.7353L15.0461 13.0686C15.0877 13.026 15.1321 12.9861 15.1791 12.9494L15.1819 12.9471L15.2854 12.8743Z" fill="#FF6839"/>
<path id="Vector_2" fill-rule="evenodd" clip-rule="evenodd" d="M12.0413 6.66669H4V26.6667H28V10.6667H16C15.6043 10.6667 15.229 10.4909 14.9757 10.1869L12.0413 6.66669ZM15.2852 12.8743L15.3005 12.8645C15.321 12.8519 15.3417 12.8399 15.3627 12.8284C15.3881 12.8147 15.4144 12.8015 15.4411 12.7891C15.4594 12.7806 15.4776 12.7727 15.4959 12.7653C15.524 12.7538 15.5526 12.7432 15.5817 12.7336C15.605 12.726 15.6286 12.719 15.6524 12.7126C15.6769 12.7058 15.7018 12.6999 15.727 12.6947C15.7531 12.6894 15.7789 12.6848 15.8048 12.681C15.8287 12.6774 15.8536 12.6744 15.8786 12.6721C15.9111 12.6692 15.9432 12.6675 15.9752 12.6669L16 12.6667C16.0675 12.6667 16.1338 12.6717 16.1986 12.6814C16.2209 12.6848 16.244 12.6889 16.2671 12.6936C16.297 12.6995 16.3259 12.7065 16.3545 12.7143C16.3748 12.72 16.3954 12.7262 16.4158 12.7329C16.4424 12.7415 16.4688 12.7511 16.4947 12.7615C16.518 12.7708 16.5411 12.7808 16.564 12.7914C16.5919 12.8045 16.6191 12.8184 16.6457 12.8332C16.6616 12.8419 16.6779 12.8514 16.6941 12.8612C16.7284 12.8823 16.7615 12.9047 16.7935 12.9284C16.8015 12.9342 16.8093 12.9402 16.8171 12.9462L16.8339 12.9596L16.9428 13.0572L21.6095 17.7239C22.1302 18.2446 22.1302 19.0888 21.6095 19.6095C21.1288 20.0901 20.3725 20.1271 19.8495 19.7204L19.7239 19.6095L17.3333 17.22V23.3334C17.3333 24.0697 16.7364 24.6667 16 24.6667C15.3162 24.6667 14.7527 24.152 14.6756 23.4888L14.6667 23.3334V17.2214L12.2772 19.6188C11.7971 20.1 11.0408 20.1378 10.5173 19.7317L10.3916 19.6209C9.91039 19.1408 9.87258 18.3846 10.2787 17.8611L10.3895 17.7353L15.0459 13.0686C15.0875 13.026 15.132 12.9862 15.179 12.9494L15.1817 12.9471L15.2852 12.8743Z" fill="#FFEBE5"/>
</g>
</svg>
