<svg width="22" height="22" viewBox="0 0 22 22" fill="none" xmlns="http://www.w3.org/2000/svg">
<g id="hashtag-key">
<g id="Vector">
<path fill-rule="evenodd" clip-rule="evenodd" d="M8.70825 6.41683C9.21451 6.41683 9.62492 6.82723 9.62492 7.3335V7.79183H12.3749V7.3335C12.3749 6.82723 12.7853 6.41683 13.2916 6.41683C13.7978 6.41683 14.2083 6.82723 14.2083 7.3335V7.79183H14.6666C15.1728 7.79183 15.5833 8.20223 15.5833 8.7085C15.5833 9.21476 15.1728 9.62516 14.6666 9.62516H14.2083V12.3752H14.6666C15.1728 12.3752 15.5833 12.7856 15.5833 13.2918C15.5833 13.7981 15.1728 14.2085 14.6666 14.2085H14.2083V14.6668C14.2083 15.1731 13.7978 15.5835 13.2916 15.5835C12.7853 15.5835 12.3749 15.1731 12.3749 14.6668V14.2085H9.62492V14.6668C9.62492 15.1731 9.21451 15.5835 8.70825 15.5835C8.20199 15.5835 7.79158 15.1731 7.79158 14.6668V14.2085H7.33325C6.82699 14.2085 6.41658 13.7981 6.41658 13.2918C6.41658 12.7856 6.82699 12.3752 7.33325 12.3752H7.79158V9.62516H7.33325C6.82699 9.62516 6.41658 9.21476 6.41658 8.7085C6.41658 8.20223 6.82699 7.79183 7.33325 7.79183H7.79158V7.3335C7.79158 6.82723 8.20199 6.41683 8.70825 6.41683ZM9.62492 12.3752H12.3749V9.62516H9.62492V12.3752Z" fill="#4B5563"/>
<path fill-rule="evenodd" clip-rule="evenodd" d="M1.83325 4.12516C1.83325 2.85951 2.85927 1.8335 4.12492 1.8335H17.8749C19.1406 1.8335 20.1666 2.85951 20.1666 4.12516V17.8752C20.1666 19.1408 19.1406 20.1668 17.8749 20.1668H4.12492C2.85927 20.1668 1.83325 19.1408 1.83325 17.8752V4.12516ZM4.12492 3.66683C3.87179 3.66683 3.66659 3.87203 3.66659 4.12516V17.8752C3.66659 18.1283 3.87179 18.3335 4.12492 18.3335H17.8749C18.128 18.3335 18.3333 18.1283 18.3333 17.8752V4.12516C18.3333 3.87203 18.128 3.66683 17.8749 3.66683H4.12492Z" fill="#4B5563"/>
</g>
</g>
</svg>
