<svg width="22" height="22" viewBox="0 0 22 22" fill="none" xmlns="http://www.w3.org/2000/svg">
<g id="lock">
<g id="Vector">
<path d="M11.9166 13.7498C11.9166 13.2436 11.5062 12.8332 10.9999 12.8332C10.4937 12.8332 10.0833 13.2436 10.0833 13.7498V16.4998C10.0833 17.0061 10.4937 17.4165 10.9999 17.4165C11.5062 17.4165 11.9166 17.0061 11.9166 16.4998V13.7498Z" fill="#4B5563"/>
<path fill-rule="evenodd" clip-rule="evenodd" d="M5.49992 6.4165V9.1665H3.66659C2.65406 9.1665 1.83325 9.98732 1.83325 10.9998V19.2498C1.83325 20.2624 2.65406 21.0832 3.66659 21.0832H18.3333C19.3458 21.0832 20.1666 20.2624 20.1666 19.2498V10.9998C20.1666 9.98732 19.3458 9.1665 18.3333 9.1665H16.4999V6.4165C16.4999 3.37893 14.0375 0.916504 10.9999 0.916504C7.96238 0.916504 5.49992 3.37893 5.49992 6.4165ZM10.9999 2.74984C8.97489 2.74984 7.33325 4.39146 7.33325 6.4165V9.1665H14.6666V6.4165C14.6666 4.39146 13.0249 2.74984 10.9999 2.74984ZM3.66659 10.9998H18.3333V19.2498H3.66659V10.9998Z" fill="#4B5563"/>
</g>
</g>
</svg>
