<svg width="20" height="18" viewBox="0 0 20 18" fill="none" xmlns="http://www.w3.org/2000/svg">
<path id="Subtract" fill-rule="evenodd" clip-rule="evenodd" d="M9.47949 0.849296C9.78384 0.605817 10.2163 0.605817 10.5207 0.849296L18.854 7.51596C19.2134 7.80347 19.2716 8.32788 18.9841 8.68727C18.6966 9.04665 18.1722 9.10492 17.8128 8.81741L17.0834 8.23387V16.5C17.0834 16.9603 16.7103 17.3334 16.2501 17.3334H3.75007C3.28983 17.3334 2.91674 16.9603 2.91674 16.5V8.23387L2.18732 8.81741C1.82793 9.10492 1.30352 9.04665 1.01601 8.68727C0.728506 8.32788 0.786774 7.80347 1.14616 7.51596L9.47949 0.849296ZM7.91671 10.25C7.45647 10.25 7.08337 10.6231 7.08337 11.0834V15.6667H12.9167V11.0834C12.9167 10.6231 12.5436 10.25 12.0834 10.25H7.91671Z" fill="#D1D5DB"/>
</svg>
