<svg width="24" height="24" viewBox="0 0 24 24" fill="none" xmlns="http://www.w3.org/2000/svg">
<g id="alarm-clock">
<path id="Vector (Stroke)" fill-rule="evenodd" clip-rule="evenodd" d="M6.31381 1.41884C6.63482 1.86825 6.53073 2.4928 6.08132 2.81381L2.58132 5.31381C2.1319 5.63482 1.50735 5.53073 1.18634 5.08132C0.865335 4.6319 0.969427 4.00735 1.41884 3.68634L4.91884 1.18634C5.36825 0.865335 5.9928 0.969427 6.31381 1.41884ZM17.6863 1.41884C18.0074 0.969427 18.6319 0.865335 19.0813 1.18634L22.5813 3.68634C23.0307 4.00735 23.1348 4.6319 22.8138 5.08132C22.4928 5.53073 21.8683 5.63482 21.4188 5.31381L17.9188 2.81381C17.4694 2.4928 17.3653 1.86825 17.6863 1.41884ZM1.83339 13.0001C1.83339 7.38517 6.38514 2.83342 12.0001 2.83342C17.615 2.83342 22.1667 7.38517 22.1667 13.0001C22.1667 18.615 17.615 23.1668 12.0001 23.1668C6.38514 23.1668 1.83339 18.615 1.83339 13.0001ZM12.0001 4.83342C7.48971 4.83342 3.83339 8.48974 3.83339 13.0001C3.83339 17.5104 7.48971 21.1668 12.0001 21.1668C16.5104 21.1668 20.1667 17.5104 20.1667 13.0001C20.1667 8.48974 16.5104 4.83342 12.0001 4.83342ZM11.8799 6.67685C12.4322 6.67691 12.8798 7.12468 12.8798 7.67696L12.8792 12.7671L16.4724 16.3603C16.863 16.7508 16.863 17.384 16.4724 17.7745C16.0819 18.165 15.4487 18.165 15.0582 17.7745L11.1721 13.8884C10.9845 13.7008 10.8791 13.4464 10.8792 13.1811L10.8798 7.67674C10.8798 7.12446 11.3276 6.67679 11.8799 6.67685Z" fill="#FF6839"/>
<path id="Vector (Stroke)_2" fill-rule="evenodd" clip-rule="evenodd" d="M3.8335 12.9997C3.8335 8.48933 7.48982 4.83301 12.0002 4.83301C16.5105 4.83301 20.1668 8.48933 20.1668 12.9997C20.1668 17.51 16.5105 21.1663 12.0002 21.1663C7.48981 21.1663 3.8335 17.51 3.8335 12.9997ZM11.88 6.67644C12.4323 6.6765 12.8799 7.12427 12.8799 7.67655L12.8793 12.7667L16.4725 16.3599C16.8631 16.7504 16.8631 17.3836 16.4725 17.7741C16.082 18.1646 15.4488 18.1646 15.0583 17.7741L11.1722 13.8879C10.9846 13.7004 10.8793 13.446 10.8793 13.1807L10.8799 7.67633C10.8799 7.12405 11.3277 6.67638 11.88 6.67644Z" fill="#FFEBE5"/>
</g>
</svg>
