<svg width="38" height="38" viewBox="0 0 38 38" fill="none" xmlns="http://www.w3.org/2000/svg">
<g id="Frame" clip-path="url(#clip0_3133_1418)">
<g id="Group">
<path id="Vector" d="M5.43329 21.8886H4.26244C3.47882 21.8886 2.84363 21.2534 2.84363 20.4698V20.0976C2.84363 19.3141 3.47882 18.6788 4.26244 18.6788H5.43329C6.21684 18.6788 6.85211 19.314 6.85211 20.0976V20.4698C6.85211 21.2534 6.21684 21.8886 5.43329 21.8886Z" fill="url(#paint0_linear_3133_1418)"/>
<path id="Vector_2" d="M33.7376 21.8886H32.5668C31.7831 21.8886 31.1479 21.2534 31.1479 20.4698V20.0976C31.1479 19.3141 31.7831 18.6788 32.5668 18.6788H33.7376C34.5212 18.6788 35.1564 19.314 35.1564 20.0976V20.4698C35.1564 21.2534 34.5212 21.8886 33.7376 21.8886Z" fill="url(#paint1_linear_3133_1418)"/>
<path id="Vector_3" d="M33.7376 21.8886C34.1539 21.8886 34.527 21.7082 34.7866 21.4226L32.1167 18.7528C31.554 18.9411 31.1479 19.4715 31.1479 20.0976V20.4697C31.1479 21.2534 31.7831 21.8886 32.5668 21.8886H33.7376Z" fill="url(#paint2_linear_3133_1418)"/>
<path id="Vector_4" d="M23.4084 12.0311H14.5917L15.5428 8.2503C15.5791 8.10583 15.6627 7.97763 15.7802 7.88605C15.8976 7.79446 16.0424 7.74473 16.1913 7.74475H21.8089C22.1154 7.74475 22.3826 7.95308 22.4575 8.2503L23.4084 12.0311Z" fill="url(#paint3_linear_3133_1418)"/>
<path id="Vector_5" d="M23.4083 12.031L22.4792 8.33752H17.0541C16.9052 8.33753 16.7605 8.38727 16.643 8.47885C16.5255 8.57043 16.4419 8.69862 16.4056 8.84307L15.6036 12.031H23.4083Z" fill="url(#paint4_linear_3133_1418)"/>
<path id="Vector_6" d="M28.7007 11.4C22.2392 11.0197 15.7608 11.0197 9.29927 11.4C8.99901 11.4177 8.71094 11.5249 8.47222 11.7079C8.23349 11.8908 8.05506 12.1411 7.95995 12.4265L4.67712 22.2746H33.3229L30.04 12.4265C29.9449 12.1411 29.7665 11.8908 29.5278 11.7079C29.289 11.5249 29.001 11.4177 28.7007 11.4Z" fill="url(#paint5_linear_3133_1418)"/>
<path id="Vector_7" d="M27.3889 12.8706C21.8011 12.5417 16.1989 12.5417 10.6111 12.8706C10.3514 12.8859 10.1023 12.9786 9.8959 13.1368C9.68946 13.295 9.53516 13.5115 9.45291 13.7582L6.61401 22.2746H31.386L28.5471 13.7583C28.4649 13.5115 28.3106 13.295 28.1041 13.1368C27.8977 12.9786 27.6486 12.8858 27.3889 12.8706Z" fill="url(#paint6_linear_3133_1418)"/>
<path id="Vector_8" d="M19.0001 22.2745H33.3229L30.0401 12.4264C29.9596 12.1853 29.8192 11.9686 29.6322 11.7965L16.323 22.2745H19.0001Z" fill="url(#paint7_linear_3133_1418)"/>
<path id="Vector_9" d="M26.7876 13.5447C21.6003 13.2393 16.3996 13.2393 11.2124 13.5447C10.9714 13.5589 10.7401 13.645 10.5485 13.7918C10.3568 13.9387 10.2136 14.1396 10.1372 14.3687L7.50183 22.2745H30.4982L27.8628 14.3687C27.7864 14.1396 27.6432 13.9387 27.4515 13.7918C27.2599 13.6449 27.0286 13.5588 26.7876 13.5447Z" fill="url(#paint8_linear_3133_1418)"/>
<path id="Vector_10" d="M26.2857 14.1072C21.4328 13.8215 16.5672 13.8215 11.7142 14.1072C11.4886 14.1205 11.2723 14.201 11.093 14.3384C10.9137 14.4758 10.7797 14.6638 10.7083 14.8782L8.24268 22.2746H29.7572L27.2916 14.8782C27.2202 14.6638 27.0862 14.4758 26.9069 14.3384C26.7276 14.201 26.5113 14.1205 26.2857 14.1072Z" fill="url(#paint9_linear_3133_1418)"/>
<path id="Vector_11" d="M7.72547 38H2.57185C1.92503 38 1.40063 37.4756 1.40063 36.8287V27.159C1.40063 26.4322 1.98978 25.843 2.71663 25.843H7.5807C8.30755 25.843 8.89669 26.4322 8.89669 27.159V36.8288C8.89669 37.4756 8.37237 38 7.72547 38Z" fill="url(#paint10_linear_3133_1418)"/>
<path id="Vector_12" d="M3.01416 25.843V34.0673C3.01416 34.3337 3.06669 34.5975 3.16876 34.8436C3.27082 35.0897 3.42041 35.3132 3.60897 35.5014L6.11213 38H7.72549C8.37231 38 8.89671 37.4756 8.89671 36.8287V27.159C8.89671 26.4322 8.30749 25.843 7.58072 25.843H3.01416Z" fill="url(#paint11_linear_3133_1418)"/>
<path id="Vector_13" d="M5.14868 38H7.72553C8.37235 38 8.89675 37.4756 8.89675 36.8287V27.159C8.89675 26.4322 8.30752 25.843 7.58076 25.843H5.14876L5.14868 38Z" fill="url(#paint12_linear_3133_1418)"/>
<path id="Vector_14" d="M35.4281 38H30.2745C29.6277 38 29.1033 37.4756 29.1033 36.8287V27.159C29.1033 26.4322 29.6925 25.843 30.4193 25.843H35.2833C36.0101 25.843 36.5993 26.4322 36.5993 27.159V36.8288C36.5993 37.4756 36.0749 38 35.4281 38Z" fill="url(#paint13_linear_3133_1418)"/>
<path id="Vector_15" d="M30.4193 25.843C29.6924 25.843 29.1033 26.4322 29.1033 27.159V34.9077L29.1071 34.9059L32.2012 38H35.4281C36.0749 38 36.5993 37.4756 36.5993 36.8287V27.159C36.5993 26.4322 36.0101 25.843 35.2833 25.843H30.4193Z" fill="url(#paint14_linear_3133_1418)"/>
<path id="Vector_16" d="M32.8513 38H35.4282C36.075 38 36.5994 37.4756 36.5994 36.8287V27.159C36.5994 26.4322 36.0102 25.843 35.2834 25.843H32.8514V38H32.8513Z" fill="url(#paint15_linear_3133_1418)"/>
<path id="Vector_17" d="M34.8365 32.9083H3.16341C2.56554 32.9083 2.08093 32.4237 2.08093 31.8258V23.7919C2.08093 22.909 2.70264 22.1482 3.56792 21.9722L3.80226 21.9246C13.912 19.8689 24.3336 19.884 34.4373 21.9688C35.3001 22.1468 35.919 22.9065 35.919 23.7875V31.8259C35.919 32.4237 35.4344 32.9083 34.8365 32.9083Z" fill="url(#paint16_linear_3133_1418)"/>
<path id="Vector_18" d="M35.919 24.7051V23.7874C35.919 22.9065 35.3001 22.1468 34.4373 21.9688C24.3336 19.884 13.912 19.8689 3.80226 21.9245L3.56792 21.9721C2.70272 22.148 2.08093 22.9089 2.08093 23.7919V24.7051H35.919Z" fill="url(#paint17_linear_3133_1418)"/>
<path id="Vector_19" d="M33.9629 32.9083H4.03696C3.4721 32.9083 3.01416 32.4637 3.01416 31.9153V24.5459C3.01416 23.736 3.6016 23.038 4.41912 22.8766L4.64049 22.833C14.1981 20.9474 24.0334 20.9612 33.5858 22.8736C34.4009 23.0369 34.9857 23.7337 34.9857 24.5418V31.9153C34.9857 32.4637 34.5278 32.9083 33.9629 32.9083Z" fill="url(#paint18_linear_3133_1418)"/>
<path id="Vector_20" d="M18.5316 32.7063V33.7437H8.09606L4.01121 29.6588C3.90594 29.5708 3.82129 29.4607 3.76322 29.3364C3.70516 29.2121 3.6751 29.0765 3.67517 28.9393V26.7818C3.67517 26.2631 4.09645 25.843 4.61511 25.843H11.6671C11.9569 25.843 12.215 25.9733 12.3866 26.1791C12.4293 26.2144 18.1955 31.9867 18.1955 31.9867C18.4001 32.1597 18.5316 32.4178 18.5316 32.7063Z" fill="url(#paint19_linear_3133_1418)"/>
<path id="Vector_21" d="M35.919 31.8258V27.9891C34.9193 26.9894 34.1211 26.1921 34.1054 26.1791C34.0175 26.0736 33.9075 25.9888 33.7831 25.9307C33.6588 25.8726 33.5231 25.8427 33.3858 25.843H26.3339C25.8152 25.843 25.3939 26.263 25.3939 26.7818V28.9393C25.3938 29.0765 25.4239 29.2121 25.482 29.3364C25.54 29.4607 25.6247 29.5708 25.73 29.6588L28.9794 32.9083H34.8365C35.4344 32.9083 35.919 32.4237 35.919 31.8258Z" fill="url(#paint20_linear_3133_1418)"/>
<path id="Vector_22" d="M11.6671 29.8787H4.61402C4.09543 29.8787 3.67505 29.4583 3.67505 28.9397V26.782C3.67505 26.2634 4.09543 25.843 4.61402 25.843H11.6671C12.1857 25.843 12.6061 26.2634 12.6061 26.782V28.9397C12.6061 29.4583 12.1857 29.8787 11.6671 29.8787Z" fill="url(#paint21_linear_3133_1418)"/>
<path id="Vector_23" d="M5.28761 26.5166C4.76902 26.5166 4.34863 26.937 4.34863 27.4556V29.6133C4.34863 29.6945 4.36003 29.7728 4.37941 29.8479C4.45451 29.8673 4.5329 29.8787 4.61411 29.8787H11.6672C12.1858 29.8787 12.6062 29.4583 12.6062 28.9397V26.782C12.6062 26.7008 12.5948 26.6225 12.5754 26.5474C12.4988 26.5272 12.4199 26.5169 12.3407 26.5166H5.28761Z" fill="url(#paint22_linear_3133_1418)"/>
<path id="Vector_24" d="M12.0121 29.8787H8.78252C8.625 29.8787 8.47393 29.8161 8.36255 29.7047C8.25117 29.5933 8.1886 29.4423 8.1886 29.2848V27.2082C8.1886 27.0507 8.25117 26.8996 8.36255 26.7882C8.47393 26.6768 8.625 26.6143 8.78252 26.6143H12.0121C12.1697 26.6143 12.3207 26.6768 12.4321 26.7882C12.5435 26.8996 12.6061 27.0507 12.6061 27.2082V29.2848C12.6061 29.4423 12.5435 29.5933 12.4321 29.7047C12.3207 29.8161 12.1697 29.8787 12.0121 29.8787Z" fill="url(#paint23_linear_3133_1418)"/>
<path id="Vector_25" d="M10.5363 29.0784C11.2087 29.0784 11.7539 28.5333 11.7539 27.8609C11.7539 27.1884 11.2087 26.6433 10.5363 26.6433C9.86385 26.6433 9.31873 27.1884 9.31873 27.8609C9.31873 28.5333 9.86385 29.0784 10.5363 29.0784Z" fill="url(#paint24_linear_3133_1418)"/>
<path id="Vector_26" d="M33.3859 29.8787H26.3328C25.8142 29.8787 25.3938 29.4583 25.3938 28.9397V26.782C25.3938 26.2634 25.8142 25.843 26.3328 25.843H33.3859C33.9045 25.843 34.3248 26.2634 34.3248 26.782V28.9397C34.3248 29.4583 33.9045 29.8787 33.3859 29.8787Z" fill="url(#paint25_linear_3133_1418)"/>
<path id="Vector_27" d="M27.0064 26.5166C26.4878 26.5166 26.0674 26.937 26.0674 27.4556V29.6133C26.0674 29.6945 26.0788 29.7728 26.0982 29.8479C26.1733 29.8673 26.2516 29.8787 26.3328 29.8787H33.3859C33.9045 29.8787 34.3249 29.4583 34.3249 28.9397V26.782C34.3249 26.7008 34.3135 26.6225 34.2941 26.5474C34.2175 26.5272 34.1387 26.5169 34.0595 26.5166H27.0064Z" fill="url(#paint26_linear_3133_1418)"/>
<path id="Vector_28" d="M33.731 29.8787H30.5014C30.3439 29.8787 30.1928 29.8161 30.0814 29.7047C29.97 29.5933 29.9075 29.4423 29.9075 29.2848V27.2082C29.9075 27.0507 29.97 26.8996 30.0814 26.7882C30.1928 26.6768 30.3439 26.6143 30.5014 26.6143H33.731C33.8885 26.6143 34.0396 26.6768 34.151 26.7882C34.2624 26.8996 34.3249 27.0507 34.3249 27.2082V29.2848C34.3249 29.4423 34.2624 29.5933 34.151 29.7047C34.0396 29.8161 33.8885 29.8787 33.731 29.8787Z" fill="url(#paint27_linear_3133_1418)"/>
<path id="Vector_29" d="M32.255 29.0784C32.9275 29.0784 33.4726 28.5333 33.4726 27.8609C33.4726 27.1884 32.9275 26.6433 32.255 26.6433C31.5826 26.6433 31.0375 27.1884 31.0375 27.8609C31.0375 28.5333 31.5826 29.0784 32.255 29.0784Z" fill="url(#paint28_linear_3133_1418)"/>
<path id="Vector_30" d="M34.1487 34.9059H3.85133C3.38899 34.9059 3.01428 34.5311 3.01428 34.0689V31.5348C3.01428 31.0725 3.38907 30.6978 3.85133 30.6978H34.1487C34.6111 30.6978 34.9858 31.0725 34.9858 31.5348V34.0689C34.9858 34.5311 34.611 34.9059 34.1487 34.9059Z" fill="url(#paint29_linear_3133_1418)"/>
<path id="Vector_31" d="M13.8115 28.8916H24.1886C24.2277 28.8916 24.2665 28.8993 24.3027 28.9143C24.3389 28.9293 24.3717 28.9512 24.3994 28.9789C24.4271 29.0066 24.4491 29.0394 24.464 29.0756C24.479 29.1118 24.4867 29.1506 24.4867 29.1897V29.2493C24.4867 29.2885 24.479 29.3272 24.464 29.3634C24.4491 29.3996 24.4271 29.4325 24.3994 29.4601C24.3717 29.4878 24.3389 29.5098 24.3027 29.5248C24.2665 29.5397 24.2277 29.5474 24.1886 29.5474H13.8115C13.7724 29.5474 13.7336 29.5397 13.6974 29.5248C13.6613 29.5098 13.6284 29.4878 13.6007 29.4601C13.573 29.4325 13.5511 29.3996 13.5361 29.3634C13.5211 29.3272 13.5134 29.2885 13.5134 29.2493V29.1897C13.5134 29.1506 13.5211 29.1118 13.5361 29.0756C13.5511 29.0394 13.573 29.0066 13.6007 28.9789C13.6284 28.9512 13.6613 28.9293 13.6974 28.9143C13.7336 28.8993 13.7724 28.8916 13.8115 28.8916Z" fill="url(#paint30_linear_3133_1418)"/>
<path id="Vector_32" d="M13.8115 27.9858H24.1886C24.2277 27.9858 24.2665 27.9935 24.3027 28.0085C24.3389 28.0235 24.3717 28.0454 24.3994 28.0731C24.4271 28.1008 24.4491 28.1337 24.464 28.1699C24.479 28.206 24.4867 28.2448 24.4867 28.284V28.3436C24.4867 28.3827 24.479 28.4215 24.464 28.4577C24.4491 28.4938 24.4271 28.5267 24.3994 28.5544C24.3717 28.5821 24.3389 28.604 24.3027 28.619C24.2665 28.634 24.2277 28.6417 24.1886 28.6417H13.8115C13.7325 28.6417 13.6566 28.6103 13.6007 28.5544C13.5448 28.4985 13.5134 28.4226 13.5134 28.3436V28.284C13.5134 28.2049 13.5448 28.1291 13.6007 28.0732C13.6566 28.0172 13.7325 27.9858 13.8115 27.9858Z" fill="url(#paint31_linear_3133_1418)"/>
<path id="Vector_33" d="M13.8115 27.08H24.1886C24.2277 27.0799 24.2665 27.0877 24.3027 27.1026C24.3389 27.1176 24.3717 27.1396 24.3994 27.1673C24.4271 27.1949 24.4491 27.2278 24.464 27.264C24.479 27.3002 24.4867 27.3389 24.4867 27.3781V27.4377C24.4867 27.4768 24.479 27.5156 24.464 27.5518C24.4491 27.5879 24.4271 27.6208 24.3994 27.6485C24.3717 27.6762 24.3389 27.6981 24.3027 27.7131C24.2665 27.7281 24.2277 27.7358 24.1886 27.7358H13.8115C13.7724 27.7358 13.7336 27.7281 13.6974 27.7131C13.6613 27.6981 13.6284 27.6762 13.6007 27.6485C13.573 27.6208 13.5511 27.5879 13.5361 27.5518C13.5211 27.5156 13.5134 27.4768 13.5134 27.4377V27.3781C13.5134 27.299 13.5448 27.2232 13.6007 27.1673C13.6566 27.1114 13.7325 27.08 13.8115 27.08Z" fill="url(#paint32_linear_3133_1418)"/>
<path id="Vector_34" d="M13.8115 26.1742H24.1886C24.2677 26.1742 24.3435 26.2056 24.3994 26.2615C24.4553 26.3174 24.4867 26.3932 24.4867 26.4723V26.5319C24.4867 26.5711 24.479 26.6098 24.464 26.646C24.4491 26.6822 24.4271 26.7151 24.3994 26.7427C24.3717 26.7704 24.3389 26.7924 24.3027 26.8074C24.2665 26.8223 24.2277 26.83 24.1886 26.83H13.8115C13.7724 26.83 13.7336 26.8223 13.6974 26.8074C13.6613 26.7924 13.6284 26.7704 13.6007 26.7427C13.573 26.7151 13.5511 26.6822 13.5361 26.646C13.5211 26.6098 13.5134 26.5711 13.5134 26.5319V26.4723C13.5134 26.3932 13.5448 26.3174 13.6007 26.2615C13.6566 26.2056 13.7325 26.1742 13.8115 26.1742Z" fill="url(#paint33_linear_3133_1418)"/>
<path id="Vector_35" d="M34.4373 21.9689C29.3584 20.9211 24.1859 20.3936 19 20.3947V32.9084H34.8365C35.4344 32.9084 35.919 32.4237 35.919 31.8259V23.7875C35.919 22.9066 35.3001 22.1469 34.4373 21.9689Z" fill="url(#paint34_linear_3133_1418)"/>
<g id="Group_2">
<path id="Vector_36" d="M16.1912 8.61039C16.1912 8.55563 16.2032 8.50824 16.2274 8.46808C16.2515 8.42799 16.2868 8.40795 16.3331 8.40795H17.6378C17.6841 8.40795 17.7194 8.42799 17.7436 8.46808C17.7677 8.50824 17.7798 8.55563 17.7798 8.61039C17.7798 8.66911 17.7672 8.71843 17.742 8.75859C17.7168 8.79868 17.6821 8.81872 17.6378 8.81872H17.221V10.4698C17.221 10.5164 17.1979 10.5524 17.1516 10.5778C17.1052 10.6031 17.0499 10.6158 16.9855 10.6158C16.9211 10.6158 16.8657 10.6031 16.8194 10.5778C16.7731 10.5524 16.75 10.5164 16.75 10.4698V8.81872H16.3332C16.2888 8.81872 16.2541 8.79868 16.229 8.75859C16.2038 8.71843 16.1912 8.66911 16.1912 8.61039ZM17.6258 10.4225C17.6258 10.4164 17.6278 10.4054 17.6318 10.3892L18.1935 8.54691C18.2096 8.49662 18.2464 8.4578 18.3038 8.4306C18.3612 8.40341 18.4271 8.38984 18.5016 8.38984C18.5761 8.38984 18.6421 8.40348 18.6995 8.4306C18.7568 8.4578 18.7936 8.49654 18.8097 8.54691L19.3744 10.3892C19.3785 10.4054 19.3805 10.4164 19.3805 10.4225C19.3805 10.4749 19.3478 10.5202 19.2824 10.5584C19.2169 10.5967 19.1489 10.6158 19.0785 10.6158C18.9919 10.6158 18.9406 10.5866 18.9245 10.5282L18.8218 10.1507H18.1845L18.0818 10.5282C18.0657 10.5866 18.0143 10.6158 17.9278 10.6158C17.8574 10.6158 17.7894 10.5967 17.724 10.5584C17.6585 10.5202 17.6258 10.4749 17.6258 10.4225ZM18.2812 9.78817H18.7221L18.5016 8.97877L18.2812 9.78817ZM19.4168 10.4013C19.4168 10.3752 19.4259 10.3469 19.444 10.3167L19.9664 9.51032L19.465 8.70696C19.4449 8.67477 19.4349 8.64355 19.4349 8.6133C19.4349 8.55287 19.4681 8.50057 19.5346 8.45623C19.601 8.41197 19.6694 8.38977 19.74 8.38977C19.8065 8.38977 19.8537 8.416 19.8819 8.4683L20.2836 9.16899L20.6853 8.4683C20.7135 8.416 20.7608 8.38977 20.8272 8.38977C20.8977 8.38977 20.9662 8.41197 21.0326 8.45623C21.099 8.50057 21.1323 8.55287 21.1323 8.6133C21.1323 8.64348 21.1222 8.67477 21.1021 8.70696L20.6007 9.51032L21.1232 10.3167C21.1413 10.3469 21.1504 10.3752 21.1504 10.4013C21.1504 10.4617 21.1157 10.5156 21.0462 10.5629C20.9768 10.6102 20.9068 10.6339 20.8363 10.6339C20.7799 10.6339 20.7427 10.6177 20.7246 10.5856L20.2836 9.83653L19.8427 10.5856C19.8225 10.6178 19.7853 10.6339 19.7309 10.6339C19.6604 10.6339 19.5904 10.6102 19.521 10.5629C19.4515 10.5156 19.4168 10.4617 19.4168 10.4013ZM21.3376 10.4708V8.54989C21.3376 8.50362 21.3607 8.46838 21.4071 8.44416C21.4533 8.42002 21.5087 8.40795 21.5732 8.40795C21.6376 8.40795 21.693 8.42002 21.7393 8.44416C21.7856 8.4683 21.8088 8.50355 21.8088 8.54989V10.4708C21.8088 10.5171 21.7856 10.5528 21.7393 10.578C21.693 10.6032 21.6376 10.6158 21.5732 10.6158C21.5088 10.6158 21.4534 10.6032 21.4071 10.578C21.3607 10.5529 21.3376 10.5171 21.3376 10.4708Z" fill="#555A66"/>
</g>
<path id="Vector_37" d="M30.4544 13.6692H28.9658V16.9409L32.8347 20.8098L30.4544 13.6692Z" fill="url(#paint35_linear_3133_1418)"/>
<path id="Vector_38" d="M36.5993 7.27581C36.5993 3.25749 33.3419 0 29.3235 0C25.3227 0 22.0882 3.20057 22.0481 7.20115C22.0179 10.2227 23.8297 12.8243 26.4293 13.9526C26.8642 14.1416 27.2365 14.4503 27.503 14.8426L28.8047 16.7577C29.0537 17.1239 29.5933 17.1239 29.8423 16.7577L31.144 14.8426C31.4098 14.4516 31.78 14.1422 32.2137 13.9543C34.794 12.8362 36.5993 10.267 36.5993 7.27581Z" fill="url(#paint36_linear_3133_1418)"/>
<path id="Vector_39" d="M29.3235 16.6698C29.2813 16.6698 29.1757 16.6585 29.1045 16.5539L27.8028 14.6388C27.4979 14.1895 27.0716 13.8362 26.5736 13.62C24.0167 12.5102 22.3826 9.99205 22.4106 7.20478C22.429 5.36618 23.1553 3.64493 24.4556 2.358C25.7557 1.07129 27.4847 0.362549 29.3234 0.362549C33.1354 0.362549 36.2367 3.4638 36.2367 7.27579C36.2367 10.0338 34.601 12.5247 32.0696 13.6216C31.5744 13.8362 31.1507 14.188 30.8442 14.6389L29.5424 16.554C29.4713 16.6585 29.3657 16.6698 29.3235 16.6698Z" fill="url(#paint37_linear_3133_1418)"/>
<path id="Vector_40" d="M29.3236 11.8492C31.8495 11.8492 33.8971 9.80162 33.8971 7.27576C33.8971 4.74989 31.8495 2.70227 29.3236 2.70227C26.7977 2.70227 24.7501 4.74989 24.7501 7.27576C24.7501 9.80162 26.7977 11.8492 29.3236 11.8492Z" fill="url(#paint38_linear_3133_1418)"/>
<path id="Vector_41" d="M36.3718 9.08724L32.0266 4.74205C31.3506 4.02124 30.3898 3.57068 29.3236 3.57068C27.2773 3.57068 25.6185 5.22949 25.6185 7.27568C25.6185 8.34184 26.069 9.30264 26.7899 9.97867L31.3692 14.558C31.605 14.2994 31.8928 14.0937 32.2138 13.9542C34.2546 13.0699 35.8103 11.2778 36.3718 9.08724Z" fill="url(#paint39_linear_3133_1418)"/>
<path id="Vector_42" d="M29.3236 10.9808C31.3699 10.9808 33.0287 9.32201 33.0287 7.27575C33.0287 5.2295 31.3699 3.57068 29.3236 3.57068C27.2773 3.57068 25.6185 5.2295 25.6185 7.27575C25.6185 9.32201 27.2773 10.9808 29.3236 10.9808Z" fill="url(#paint40_linear_3133_1418)"/>
</g>
</g>
<defs>
<linearGradient id="paint0_linear_3133_1418" x1="2.84363" y1="18.6788" x2="6.85211" y2="18.6788" gradientUnits="userSpaceOnUse">
<stop stop-color="#7E8595"/>
<stop offset="1" stop-color="#555A66"/>
</linearGradient>
<linearGradient id="paint1_linear_3133_1418" x1="31.1479" y1="18.6788" x2="35.1564" y2="18.6788" gradientUnits="userSpaceOnUse">
<stop stop-color="#7E8595"/>
<stop offset="1" stop-color="#555A66"/>
</linearGradient>
<linearGradient id="paint2_linear_3133_1418" x1="31.1479" y1="18.7528" x2="34.7866" y2="18.7528" gradientUnits="userSpaceOnUse">
<stop stop-color="#555A66" stop-opacity="0"/>
<stop offset="1" stop-color="#555A66"/>
</linearGradient>
<linearGradient id="paint3_linear_3133_1418" x1="14.5917" y1="7.74475" x2="23.4084" y2="7.74475" gradientUnits="userSpaceOnUse">
<stop stop-color="#F9F7FC"/>
<stop offset="1" stop-color="#F0DDFC"/>
</linearGradient>
<linearGradient id="paint4_linear_3133_1418" x1="15.6036" y1="8.33752" x2="23.4083" y2="8.33752" gradientUnits="userSpaceOnUse">
<stop stop-color="#E9EDF5" stop-opacity="0"/>
<stop offset="1" stop-color="white"/>
</linearGradient>
<linearGradient id="paint5_linear_3133_1418" x1="4.67712" y1="11.1147" x2="33.3229" y2="11.1147" gradientUnits="userSpaceOnUse">
<stop stop-color="#FFDA45"/>
<stop offset="1" stop-color="#FFA425"/>
</linearGradient>
<linearGradient id="paint6_linear_3133_1418" x1="6.61401" y1="12.6239" x2="31.386" y2="12.6239" gradientUnits="userSpaceOnUse">
<stop stop-color="#FFDA45" stop-opacity="0"/>
<stop offset="1" stop-color="#B53759"/>
</linearGradient>
<linearGradient id="paint7_linear_3133_1418" x1="16.323" y1="11.7965" x2="33.3229" y2="11.7965" gradientUnits="userSpaceOnUse">
<stop stop-color="#FFDA45" stop-opacity="0"/>
<stop offset="1" stop-color="#B53759"/>
</linearGradient>
<linearGradient id="paint8_linear_3133_1418" x1="7.50183" y1="13.3157" x2="30.4982" y2="13.3157" gradientUnits="userSpaceOnUse">
<stop stop-color="#7E8595"/>
<stop offset="1" stop-color="#555A66"/>
</linearGradient>
<linearGradient id="paint9_linear_3133_1418" x1="18.8568" y1="20.1125" x2="1.79728" y2="-4.55825" gradientUnits="userSpaceOnUse">
<stop stop-color="#BEC3D2" stop-opacity="0"/>
<stop offset="0.558" stop-color="#D4D9E4" stop-opacity="0.558"/>
<stop offset="1" stop-color="#E9EDF5"/>
</linearGradient>
<linearGradient id="paint10_linear_3133_1418" x1="1.40063" y1="25.843" x2="8.89669" y2="25.843" gradientUnits="userSpaceOnUse">
<stop stop-color="#7E8595"/>
<stop offset="1" stop-color="#555A66"/>
</linearGradient>
<linearGradient id="paint11_linear_3133_1418" x1="3.01416" y1="25.843" x2="8.89671" y2="25.843" gradientUnits="userSpaceOnUse">
<stop stop-color="#555A66" stop-opacity="0"/>
<stop offset="1" stop-color="#555A66"/>
</linearGradient>
<linearGradient id="paint12_linear_3133_1418" x1="5.14868" y1="25.843" x2="8.89675" y2="25.843" gradientUnits="userSpaceOnUse">
<stop stop-color="#555A66" stop-opacity="0"/>
<stop offset="1" stop-color="#555A66"/>
</linearGradient>
<linearGradient id="paint13_linear_3133_1418" x1="29.1033" y1="25.843" x2="36.5993" y2="25.843" gradientUnits="userSpaceOnUse">
<stop stop-color="#7E8595"/>
<stop offset="1" stop-color="#555A66"/>
</linearGradient>
<linearGradient id="paint14_linear_3133_1418" x1="29.1033" y1="25.843" x2="36.5993" y2="25.843" gradientUnits="userSpaceOnUse">
<stop stop-color="#555A66" stop-opacity="0"/>
<stop offset="1" stop-color="#555A66"/>
</linearGradient>
<linearGradient id="paint15_linear_3133_1418" x1="32.8513" y1="25.843" x2="36.5994" y2="25.843" gradientUnits="userSpaceOnUse">
<stop stop-color="#555A66" stop-opacity="0"/>
<stop offset="1" stop-color="#555A66"/>
</linearGradient>
<linearGradient id="paint16_linear_3133_1418" x1="2.08093" y1="20.3939" x2="35.919" y2="20.3939" gradientUnits="userSpaceOnUse">
<stop stop-color="#FFDA45"/>
<stop offset="1" stop-color="#FFA425"/>
</linearGradient>
<linearGradient id="paint17_linear_3133_1418" x1="2.08093" y1="20.3939" x2="35.919" y2="20.3939" gradientUnits="userSpaceOnUse">
<stop stop-color="#FFDA45"/>
<stop offset="1" stop-color="#FFA425"/>
</linearGradient>
<linearGradient id="paint18_linear_3133_1418" x1="17.054" y1="24.7049" x2="12.5544" y2="16.7681" gradientUnits="userSpaceOnUse">
<stop stop-color="#FFDA45" stop-opacity="0"/>
<stop offset="1" stop-color="#FCEE21"/>
</linearGradient>
<linearGradient id="paint19_linear_3133_1418" x1="3.67517" y1="25.843" x2="18.5316" y2="25.843" gradientUnits="userSpaceOnUse">
<stop stop-color="#F92814" stop-opacity="0"/>
<stop offset="1" stop-color="#C1272D"/>
</linearGradient>
<linearGradient id="paint20_linear_3133_1418" x1="25.3939" y1="25.843" x2="35.919" y2="25.843" gradientUnits="userSpaceOnUse">
<stop stop-color="#F92814" stop-opacity="0"/>
<stop offset="1" stop-color="#C1272D"/>
</linearGradient>
<linearGradient id="paint21_linear_3133_1418" x1="3.67505" y1="25.843" x2="12.6061" y2="25.843" gradientUnits="userSpaceOnUse">
<stop stop-color="#F9F7FC"/>
<stop offset="1" stop-color="#F0DDFC"/>
</linearGradient>
<linearGradient id="paint22_linear_3133_1418" x1="4.34863" y1="26.5166" x2="12.6062" y2="26.5166" gradientUnits="userSpaceOnUse">
<stop stop-color="#E9EDF5" stop-opacity="0"/>
<stop offset="1" stop-color="white"/>
</linearGradient>
<linearGradient id="paint23_linear_3133_1418" x1="8.1886" y1="26.6143" x2="12.6061" y2="26.6143" gradientUnits="userSpaceOnUse">
<stop stop-color="#F0DDFC" stop-opacity="0"/>
<stop offset="0.289" stop-color="#C8B7E0" stop-opacity="0.289"/>
<stop offset="0.592" stop-color="#A595C8" stop-opacity="0.592"/>
<stop offset="0.84" stop-color="#8F81B8" stop-opacity="0.84"/>
<stop offset="1" stop-color="#8779B3"/>
</linearGradient>
<linearGradient id="paint24_linear_3133_1418" x1="10.5363" y1="29.3412" x2="10.5363" y2="27.1131" gradientUnits="userSpaceOnUse">
<stop stop-color="#E9EDF5" stop-opacity="0"/>
<stop offset="1" stop-color="white"/>
</linearGradient>
<linearGradient id="paint25_linear_3133_1418" x1="25.3938" y1="25.843" x2="34.3248" y2="25.843" gradientUnits="userSpaceOnUse">
<stop stop-color="#F9F7FC"/>
<stop offset="1" stop-color="#F0DDFC"/>
</linearGradient>
<linearGradient id="paint26_linear_3133_1418" x1="26.0674" y1="26.5166" x2="34.3249" y2="26.5166" gradientUnits="userSpaceOnUse">
<stop stop-color="#E9EDF5" stop-opacity="0"/>
<stop offset="1" stop-color="white"/>
</linearGradient>
<linearGradient id="paint27_linear_3133_1418" x1="29.9075" y1="26.6143" x2="34.3249" y2="26.6143" gradientUnits="userSpaceOnUse">
<stop stop-color="#F0DDFC" stop-opacity="0"/>
<stop offset="0.289" stop-color="#C8B7E0" stop-opacity="0.289"/>
<stop offset="0.592" stop-color="#A595C8" stop-opacity="0.592"/>
<stop offset="0.84" stop-color="#8F81B8" stop-opacity="0.84"/>
<stop offset="1" stop-color="#8779B3"/>
</linearGradient>
<linearGradient id="paint28_linear_3133_1418" x1="32.255" y1="29.3412" x2="32.255" y2="27.1131" gradientUnits="userSpaceOnUse">
<stop stop-color="#E9EDF5" stop-opacity="0"/>
<stop offset="1" stop-color="white"/>
</linearGradient>
<linearGradient id="paint29_linear_3133_1418" x1="19" y1="31.9302" x2="19" y2="36.0479" gradientUnits="userSpaceOnUse">
<stop stop-color="#BEC3D2"/>
<stop offset="0.97" stop-color="#808797"/>
<stop offset="1" stop-color="#7E8595"/>
</linearGradient>
<linearGradient id="paint30_linear_3133_1418" x1="13.5134" y1="28.8916" x2="24.4867" y2="28.8916" gradientUnits="userSpaceOnUse">
<stop stop-color="#7E8595"/>
<stop offset="1" stop-color="#555A66"/>
</linearGradient>
<linearGradient id="paint31_linear_3133_1418" x1="13.5134" y1="27.9858" x2="24.4867" y2="27.9858" gradientUnits="userSpaceOnUse">
<stop stop-color="#7E8595"/>
<stop offset="1" stop-color="#555A66"/>
</linearGradient>
<linearGradient id="paint32_linear_3133_1418" x1="13.5134" y1="27.08" x2="24.4867" y2="27.08" gradientUnits="userSpaceOnUse">
<stop stop-color="#7E8595"/>
<stop offset="1" stop-color="#555A66"/>
</linearGradient>
<linearGradient id="paint33_linear_3133_1418" x1="13.5134" y1="26.1742" x2="24.4867" y2="26.1742" gradientUnits="userSpaceOnUse">
<stop stop-color="#7E8595"/>
<stop offset="1" stop-color="#555A66"/>
</linearGradient>
<linearGradient id="paint34_linear_3133_1418" x1="19" y1="20.3947" x2="35.919" y2="20.3947" gradientUnits="userSpaceOnUse">
<stop stop-color="#FFDA45" stop-opacity="0"/>
<stop offset="1" stop-color="#B53759"/>
</linearGradient>
<linearGradient id="paint35_linear_3133_1418" x1="28.9658" y1="13.6692" x2="32.8347" y2="13.6692" gradientUnits="userSpaceOnUse">
<stop stop-color="#FFDA45" stop-opacity="0"/>
<stop offset="1" stop-color="#B53759"/>
</linearGradient>
<linearGradient id="paint36_linear_3133_1418" x1="22.0477" y1="0" x2="36.5993" y2="0" gradientUnits="userSpaceOnUse">
<stop stop-color="#FF7044"/>
<stop offset="1" stop-color="#F92814"/>
</linearGradient>
<linearGradient id="paint37_linear_3133_1418" x1="27.7632" y1="5.71951" x2="22.6617" y2="0.617968" gradientUnits="userSpaceOnUse">
<stop stop-color="#FF7044" stop-opacity="0"/>
<stop offset="1" stop-color="#FFA425"/>
</linearGradient>
<linearGradient id="paint38_linear_3133_1418" x1="32.0814" y1="10.0335" x2="22.9597" y2="0.9118" gradientUnits="userSpaceOnUse">
<stop stop-color="#FF7044"/>
<stop offset="1" stop-color="#F92814"/>
</linearGradient>
<linearGradient id="paint39_linear_3133_1418" x1="25.6185" y1="3.57068" x2="36.3718" y2="3.57068" gradientUnits="userSpaceOnUse">
<stop stop-color="#F92814" stop-opacity="0"/>
<stop offset="1" stop-color="#C1272D"/>
</linearGradient>
<linearGradient id="paint40_linear_3133_1418" x1="28.4166" y1="5.89255" x2="30.606" y2="9.23134" gradientUnits="userSpaceOnUse">
<stop stop-color="#F9F7FC"/>
<stop offset="1" stop-color="#F0DDFC"/>
</linearGradient>
<clipPath id="clip0_3133_1418">
<rect width="38" height="38" fill="white"/>
</clipPath>
</defs>
</svg>
