<svg width="20" height="20" viewBox="0 0 20 20" fill="none" xmlns="http://www.w3.org/2000/svg">
<path fill-rule="evenodd" clip-rule="evenodd" d="M0.833496 7.91667C0.833496 4.92514 3.25862 2.5 6.25016 2.5C7.70601 2.5 9.02756 3.07485 10.0002 4.00807C10.9728 3.07485 12.2943 2.5 13.7502 2.5C16.7417 2.5 19.1668 4.92514 19.1668 7.91667C19.1668 10.5284 17.6369 12.9162 15.8527 14.7179C14.0605 16.5279 11.8686 17.8932 10.263 18.4267C10.0923 18.4834 9.90798 18.4834 9.73736 18.4267C8.13173 17.8932 5.93984 16.5279 4.1476 14.7179C2.36346 12.9162 0.833496 10.5284 0.833496 7.91667ZM6.25016 4.16667C4.1791 4.16667 2.50016 5.84561 2.50016 7.91667C2.50016 9.88824 3.67853 11.8755 5.33189 13.5452C6.8706 15.0991 8.69753 16.2517 10.0002 16.7509C11.3028 16.2517 13.1297 15.0991 14.6684 13.5452C16.3218 11.8755 17.5002 9.88824 17.5002 7.91667C17.5002 5.84561 15.8212 4.16667 13.7502 4.16667C12.4826 4.16667 11.3616 4.79483 10.6815 5.76055C10.5254 5.98221 10.2713 6.11408 10.0002 6.11408C9.72906 6.11408 9.47491 5.98221 9.31882 5.76055C8.63875 4.79483 7.51776 4.16667 6.25016 4.16667Z" fill="white"/>
</svg>
