<svg width="20" height="20" viewBox="0 0 20 20" fill="none" xmlns="http://www.w3.org/2000/svg">
<g id="local-two">
<path id="Combined Shape" d="M10.0003 0.833336C13.9124 0.833336 17.0837 4.00464 17.0837 7.91667C17.0837 10.4046 15.9355 12.9205 14.016 15.3755C13.3347 16.2468 12.5938 17.0592 11.8348 17.7991C11.7723 17.8601 11.7108 17.9194 11.6504 17.9772L11.3021 18.3039L10.9842 18.5904L10.7002 18.8356L10.5268 18.9793C10.2224 19.2273 9.7863 19.2293 9.47975 18.9841L9.29842 18.834L9.01574 18.5898L8.69839 18.3037L8.35026 17.9772L8.16586 17.7991C7.40683 17.0592 6.66592 16.2468 5.98466 15.3755C4.06516 12.9205 2.91699 10.4046 2.91699 7.91667C2.91699 4.00464 6.0883 0.833336 10.0003 0.833336ZM10.0003 2.5C7.00877 2.5 4.58366 4.92511 4.58366 7.91667C4.58366 9.96346 5.58598 12.1598 7.29763 14.3489C7.92958 15.1571 8.62086 15.9151 9.32927 16.6057L9.66488 16.9268C9.77544 17.0305 9.88617 17.1344 10.0003 17.2342L10.3357 16.9268L10.6714 16.6057C11.3798 15.9151 12.0711 15.1571 12.703 14.3489C14.4147 12.1598 15.417 9.96346 15.417 7.91667C15.417 4.92511 12.9919 2.5 10.0003 2.5ZM10.0003 4.58334C11.8413 4.58334 13.3337 6.07572 13.3337 7.91667C13.3337 9.75761 11.8413 11.25 10.0003 11.25C8.15938 11.25 6.66699 9.75761 6.66699 7.91667C6.66699 6.07572 8.15938 4.58334 10.0003 4.58334ZM10.0003 6.25C9.07985 6.25 8.33366 6.9962 8.33366 7.91667C8.33366 8.83714 9.07985 9.58333 10.0003 9.58333C10.9208 9.58333 11.667 8.83714 11.667 7.91667C11.667 6.9962 10.9208 6.25 10.0003 6.25Z" fill="#6B7280"/>
</g>
</svg>
