<svg width="22" height="22" viewBox="0 0 22 22" fill="none" xmlns="http://www.w3.org/2000/svg">
    <path
        d="M6.41675 5.50002C6.41675 2.96872 8.46876 0.916687 11.0001 0.916687C13.5314 0.916687 15.5834 2.96872 15.5834 5.50002C15.5834 7.71741 14.0088 9.56701 11.9167 9.99167V17.4167C11.9167 17.9229 11.5063 18.3334 11.0001 18.3334C10.4938 18.3334 10.0834 17.9229 10.0834 17.4167V9.99167C7.99135 9.56701 6.41675 7.71741 6.41675 5.50002Z"
        fill="#FF6839" />
    <path
        d="M4.73737 14.1582C4.90738 13.9032 5.19359 13.75 5.50008 13.75H7.33342C7.83968 13.75 8.25008 14.1604 8.25008 14.6667C8.25008 15.1729 7.83968 15.5834 7.33342 15.5834H5.99067L3.54622 19.25H18.4539L16.0095 15.5834H14.6667C14.1605 15.5834 13.7501 15.1729 13.7501 14.6667C13.7501 14.1604 14.1605 13.75 14.6667 13.75H16.5001C16.8066 13.75 17.0928 13.9032 17.2628 14.1582L20.9295 19.6582C21.117 19.9395 21.1345 20.3012 20.975 20.5992C20.8154 20.8973 20.5048 21.0834 20.1667 21.0834H1.83342C1.49535 21.0834 1.18473 20.8973 1.02521 20.5992C0.865697 20.3012 0.88318 19.9395 1.0707 19.6582L4.73737 14.1582Z"
        fill="#FF6839" />
</svg>
