<svg width="24" height="24" viewBox="0 0 24 24" fill="none" xmlns="http://www.w3.org/2000/svg">
<g id="logout">
<g id="Vector">
<path d="M2 3C2 2.44772 2.44772 2 3 2H11.9958C12.5481 2 12.9958 2.44772 12.9958 3C12.9958 3.55228 12.5481 4 11.9958 4H4V20H12C12.5523 20 13 20.4477 13 21C13 21.5523 12.5523 22 12 22H3C2.44772 22 2 21.5523 2 21V3Z" fill="#FF3840"/>
<path d="M15.7929 6.79289C16.1834 6.40237 16.8166 6.40237 17.2071 6.79289L21.6525 11.2383C21.8653 11.4216 22 11.6931 22 11.9961L22 11.9979C22.0005 12.2545 21.9029 12.5113 21.7071 12.7071L17.2071 17.2071C16.8166 17.5976 16.1834 17.5976 15.7929 17.2071C15.4024 16.8166 15.4024 16.1834 15.7929 15.7929L18.5897 12.9961H8C7.44772 12.9961 7 12.5484 7 11.9961C7 11.4438 7.44772 10.9961 8 10.9961H18.5819L15.7929 8.20711C15.4024 7.81658 15.4024 7.18342 15.7929 6.79289Z" fill="#FF3840"/>
</g>
</g>
</svg>
