<svg width="22" height="22" viewBox="0 0 22 22" fill="none" xmlns="http://www.w3.org/2000/svg">
<g id="lock">
<g id="Vector">
<path d="M11.9167 13.75C11.9167 13.2438 11.5063 12.8334 11 12.8334C10.4937 12.8334 10.0833 13.2438 10.0833 13.75V16.5C10.0833 17.0063 10.4937 17.4167 11 17.4167C11.5063 17.4167 11.9167 17.0063 11.9167 16.5V13.75Z" fill="#4B5563"/>
<path fill-rule="evenodd" clip-rule="evenodd" d="M5.50001 6.41669V9.16669H3.66668C2.65415 9.16669 1.83334 9.9875 1.83334 11V19.25C1.83334 20.2625 2.65415 21.0834 3.66668 21.0834H18.3333C19.3459 21.0834 20.1667 20.2625 20.1667 19.25V11C20.1667 9.9875 19.3459 9.16669 18.3333 9.16669H16.5V6.41669C16.5 3.37912 14.0376 0.916687 11 0.916687C7.96247 0.916687 5.50001 3.37912 5.50001 6.41669ZM11 2.75002C8.97498 2.75002 7.33334 4.39165 7.33334 6.41669V9.16669H14.6667V6.41669C14.6667 4.39165 13.025 2.75002 11 2.75002ZM3.66668 11H18.3333V19.25H3.66668V11Z" fill="#4B5563"/>
</g>
</g>
</svg>
