<svg width="16" height="16" viewBox="0 0 16 16" fill="none" xmlns="http://www.w3.org/2000/svg">
<g id="map-distance">
<path id="Subtract" fill-rule="evenodd" clip-rule="evenodd" d="M0.666504 2.33329C0.666504 1.41282 1.4127 0.666626 2.33317 0.666626H13.6665C14.587 0.666626 15.3332 1.41282 15.3332 2.33329V13.6666C15.3332 14.5871 14.587 15.3333 13.6665 15.3333H2.33317C1.4127 15.3333 0.666504 14.5871 0.666504 13.6666V2.33329ZM9.33317 4.66663C9.33317 3.56206 10.2286 2.66663 11.3332 2.66663C12.4377 2.66663 13.3332 3.56206 13.3332 4.66663C13.3332 5.07607 13.1599 5.53873 12.9295 5.99962C12.6877 6.48321 12.3351 7.05581 11.8817 7.71219C11.7572 7.89239 11.5522 7.99996 11.3332 7.99996C11.1142 7.99996 10.9091 7.89239 10.7846 7.71219C10.3313 7.05581 9.97868 6.48321 9.73689 5.99962C9.50644 5.53873 9.33317 5.07607 9.33317 4.66663ZM2.6665 7.66663C2.6665 6.56206 3.56193 5.66663 4.6665 5.66663C5.77107 5.66663 6.6665 6.56206 6.6665 7.66663C6.6665 8.07607 6.49324 8.53873 6.26279 8.99962C6.021 9.48321 5.66842 10.0558 5.21503 10.7122C5.09056 10.8924 4.88552 11 4.6665 11C4.44749 11 4.24245 10.8924 4.11797 10.7122C3.66458 10.0558 3.31201 9.48321 3.07022 8.99962C2.83977 8.53873 2.6665 8.07607 2.6665 7.66663ZM12.5808 9.95213C12.9226 9.81539 13.0889 9.42741 12.9522 9.08555C12.8154 8.74369 12.4274 8.57742 12.0856 8.71416L11.7384 8.85305C11.3965 8.98979 11.2302 9.37777 11.367 9.71963C11.5037 10.0615 11.8917 10.2278 12.2336 10.091L12.5808 9.95213ZM10.1502 10.9244C10.4921 10.7876 10.6584 10.3996 10.5216 10.0578C10.3849 9.71592 9.99689 9.54964 9.65504 9.68638L8.96059 9.96416C8.61873 10.1009 8.45246 10.4889 8.5892 10.8307C8.72594 11.1726 9.11392 11.3389 9.45578 11.2021L10.1502 10.9244ZM7.37245 12.0355C7.7143 11.8987 7.88058 11.5107 7.74384 11.1689C7.60709 10.827 7.21911 10.6608 6.87726 10.7975L6.18281 11.0753C5.84096 11.212 5.67468 11.6 5.81142 11.9418C5.94816 12.2837 6.33615 12.45 6.678 12.3132L7.37245 12.0355ZM4.59467 13.1466C4.93652 13.0098 5.1028 12.6219 4.96606 12.28C4.82932 11.9381 4.44134 11.7719 4.09948 11.9086L3.75226 12.0475C3.4104 12.1842 3.24412 12.5722 3.38087 12.9141C3.51761 13.2559 3.90559 13.4222 4.24745 13.2855L4.59467 13.1466Z" fill="#FF6839"/>
</g>
</svg>
