<svg width="20" height="20" viewBox="0 0 20 20" fill="none" xmlns="http://www.w3.org/2000/svg">
<g id="more-one">
<g id="Vector">
<path d="M10 6.25C10.6904 6.25 11.25 5.69036 11.25 5C11.25 4.30964 10.6904 3.75 10 3.75C9.30964 3.75 8.75 4.30964 8.75 5C8.75 5.69036 9.30964 6.25 10 6.25Z" fill="#6B7280"/>
<path d="M10 11.25C10.6904 11.25 11.25 10.6904 11.25 10C11.25 9.30964 10.6904 8.75 10 8.75C9.30964 8.75 8.75 9.30964 8.75 10C8.75 10.6904 9.30964 11.25 10 11.25Z" fill="#6B7280"/>
<path d="M10 15.8333C10.6904 15.8333 11.25 15.2737 11.25 14.5833C11.25 13.893 10.6904 13.3333 10 13.3333C9.30964 13.3333 8.75 13.893 8.75 14.5833C8.75 15.2737 9.30964 15.8333 10 15.8333Z" fill="#6B7280"/>
</g>
</g>
</svg>
