<svg width="20" height="20" viewBox="0 0 20 20" fill="none" xmlns="http://www.w3.org/2000/svg">
    <g id="map-draw">
        <path id="Vector" fill-rule="evenodd" clip-rule="evenodd"
            d="M2.01605 1.74345C1.75801 1.62436 1.45708 1.64497 1.2177 1.79814C0.978321 1.9513 0.833496 2.2159 0.833496 2.50008V15.0001C0.833496 15.3251 1.02249 15.6205 1.31761 15.7567L6.72774 18.2537C6.77494 18.276 6.82384 18.2936 6.87377 18.3066C6.99501 18.3381 7.1212 18.3417 7.24287 18.318C7.30262 18.3064 7.36128 18.2882 7.41774 18.2635L12.9043 15.9121L17.9843 18.2567C18.2423 18.3758 18.5432 18.3552 18.7826 18.202C19.022 18.0489 19.1668 17.7843 19.1668 17.5001V5.00008C19.1668 4.67504 18.9778 4.37967 18.6827 4.24346L13.2702 1.74539C13.2345 1.72866 13.1978 1.71457 13.1604 1.70314C13.0809 1.67881 12.9987 1.66674 12.9168 1.66675C12.8515 1.66675 12.7861 1.67441 12.7219 1.68987C12.6746 1.70123 12.6282 1.71678 12.5832 1.73645L7.09604 4.08807L2.01605 1.74345ZM12.0835 3.76386L7.91683 5.54958V16.2363L12.0835 14.4506V3.76386ZM13.7502 14.4669L17.5002 16.1977V5.53327L13.7502 3.8025V14.4669ZM2.50016 3.80251L6.25016 5.53327V16.1977L2.50016 14.4669V3.80251Z"
            fill="#6B7280" />
    </g>
</svg>
