<svg width="25" height="24" viewBox="0 0 25 24" fill="none" xmlns="http://www.w3.org/2000/svg">
<path d="M14.7729 15.9374C14.7737 15.9362 14.7738 15.9361 14.7729 15.9374V15.9374Z" fill="#6B7280"/>
<path fill-rule="evenodd" clip-rule="evenodd" d="M22.0996 7.5H19.033C18.5864 4.16755 15.9411 1.5 12.5996 1.5C9.25809 1.5 6.61288 4.16755 6.16619 7.5H3.09962C2.80654 7.5 2.52821 7.62857 2.33821 7.85172C2.14822 8.07487 2.06568 8.37014 2.11241 8.65947L4.21241 21.6595C4.29067 22.1439 4.70889 22.5 5.19962 22.5H19.9996C20.4903 22.5 20.9086 22.1439 20.9868 21.6595L23.0868 8.65947C23.1336 8.37014 23.051 8.07487 22.861 7.85172C22.671 7.62857 22.3927 7.5 22.0996 7.5ZM12.5996 3.5C14.7137 3.5 16.588 5.1649 17.0107 7.5H8.18849C8.61119 5.1649 10.4855 3.5 12.5996 3.5ZM10.0996 13C10.0996 13.5523 9.6519 14 9.09962 14C8.54733 14 8.09962 13.5523 8.09962 13C8.09962 12.4477 8.54733 12 9.09962 12C9.6519 12 10.0996 12.4477 10.0996 13ZM9.04492 15.6679C9.50181 15.3634 10.1182 15.4844 10.4264 15.9374C10.4282 15.94 10.4334 15.9472 10.4419 15.9584C10.4593 15.9813 10.4903 16.0202 10.5345 16.07C10.6237 16.1704 10.7627 16.3098 10.9496 16.45C11.3204 16.7281 11.8651 17 12.5996 17C13.3341 17 13.8788 16.7281 14.2496 16.45C14.4365 16.3098 14.5755 16.1704 14.6647 16.07C14.709 16.0202 14.7399 15.9813 14.7573 15.9584C14.7659 15.9472 14.7711 15.94 14.7729 15.9374C15.081 15.4844 15.6974 15.3634 16.1543 15.6679C16.6138 15.9743 16.738 16.5952 16.4317 17.0547L15.6018 16.5014C16.4317 17.0547 16.4319 17.0543 16.4317 17.0547L16.4306 17.0563L16.4295 17.058L16.4269 17.0618L16.4205 17.0712L16.4029 17.0964C16.389 17.1159 16.3707 17.1409 16.3482 17.1705C16.3031 17.2297 16.2403 17.3079 16.1595 17.3987C15.9987 17.5796 15.7627 17.8152 15.4496 18.05C14.8204 18.5219 13.8651 19 12.5996 19C11.3341 19 10.3788 18.5219 9.74962 18.05C9.43653 17.8152 9.20049 17.5796 9.03971 17.3987C8.95897 17.3079 8.89614 17.2297 8.85106 17.1705C8.82849 17.1409 8.81027 17.1159 8.79638 17.0964L8.77876 17.0712L8.77236 17.0618L8.76977 17.058L8.76862 17.0563C8.76836 17.0559 8.76757 17.0547 9.59728 16.5016L8.76757 17.0547C8.46121 16.5952 8.58539 15.9743 9.04492 15.6679ZM16.0996 14C16.6519 14 17.0996 13.5523 17.0996 13C17.0996 12.4477 16.6519 12 16.0996 12C15.5473 12 15.0996 12.4477 15.0996 13C15.0996 13.5523 15.5473 14 16.0996 14Z" fill="#6B7280"/>
</svg>
