<svg width="24" height="24" viewBox="0 0 24 24" fill="none" xmlns="http://www.w3.org/2000/svg">
<g id="shield-add">
<path id="Vector (Stroke)" fill-rule="evenodd" clip-rule="evenodd" d="M11.7242 0.540045C11.9072 0.486627 12.1017 0.486652 12.2847 0.540117L21.2804 3.16794C21.7069 3.29252 22 3.68353 22 4.12782V9.51684C22 15.6116 18.0996 21.0224 12.3174 22.949C12.1123 23.0173 11.8905 23.0173 11.6853 22.949C5.90157 21.0224 2 15.6105 2 9.51435V4.12782C2 3.68344 2.29326 3.29236 2.71985 3.16787L11.7242 0.540045ZM4 4.8777V9.51435C4 14.6376 7.20889 19.1982 12.0013 20.9414C16.7922 19.1982 20 14.6388 20 9.51684V4.8775L12.0042 2.54175L4 4.8777ZM11.9749 6.47487C12.5272 6.47487 12.9749 6.92259 12.9749 7.47487V10.4749H15.9749C16.5272 10.4749 16.9749 10.9226 16.9749 11.4749C16.9749 12.0272 16.5272 12.4749 15.9749 12.4749H12.9749V15.4749C12.9749 16.0272 12.5272 16.4749 11.9749 16.4749C11.4226 16.4749 10.9749 16.0272 10.9749 15.4749V12.4749H7.97487C7.42259 12.4749 6.97487 12.0272 6.97487 11.4749C6.97487 10.9226 7.42259 10.4749 7.97487 10.4749H10.9749V7.47487C10.9749 6.92259 11.4226 6.47487 11.9749 6.47487Z" fill="#B28D26"/>
<path id="Vector (Stroke)_2" fill-rule="evenodd" clip-rule="evenodd" d="M4 9.51459V4.87793L12.0042 2.54199L20 4.87773V9.51708C20 14.639 16.7922 19.1985 12.0013 20.9416C7.20889 19.1985 4 14.6379 4 9.51459ZM11.9749 6.47511C12.5272 6.47511 12.9749 6.92283 12.9749 7.47511V10.4751H15.9749C16.5272 10.4751 16.9749 10.9228 16.9749 11.4751C16.9749 12.0274 16.5272 12.4751 15.9749 12.4751H12.9749V15.4751C12.9749 16.0274 12.5272 16.4751 11.9749 16.4751C11.4226 16.4751 10.9749 16.0274 10.9749 15.4751V12.4751H7.97487C7.42259 12.4751 6.97487 12.0274 6.97487 11.4751C6.97487 10.9228 7.42259 10.4751 7.97487 10.4751H10.9749V7.47511C10.9749 6.92283 11.4226 6.47511 11.9749 6.47511Z" fill="#FFF8E5"/>
</g>
</svg>
