<svg width="22" height="22" viewBox="0 0 22 22" fill="none" xmlns="http://www.w3.org/2000/svg">
<path d="M19.6733 6.52023C20.1223 6.75399 20.2969 7.30752 20.0631 7.75658C19.7149 8.42554 19.1968 9.03967 18.5373 9.58019L18.3535 9.72381L20.3613 11.7316C20.7193 12.0896 20.7193 12.67 20.3613 13.0279C20.0309 13.3584 19.5109 13.3838 19.1513 13.1042L19.0649 13.0279L16.7413 10.7051C16.0179 11.0506 15.2203 11.3284 14.372 11.5303L15.1159 14.3045C15.2469 14.7935 14.9567 15.2961 14.4677 15.4272C14.0136 15.5488 13.5478 15.3073 13.3786 14.8806L13.345 14.779L12.5566 11.8369C12.0472 11.8896 11.527 11.9167 11 11.9167C10.4693 11.9167 9.94532 11.8892 9.43246 11.8358L8.64392 14.779C8.51289 15.268 8.01025 15.5582 7.52124 15.4272C7.06716 15.3055 6.7845 14.8634 6.85135 14.4093L6.87306 14.3045L7.61706 11.5277C6.77392 11.3262 5.98102 11.0498 5.2615 10.7064L2.93985 13.0279C2.58187 13.3859 2.00146 13.3859 1.64348 13.0279C1.31304 12.6975 1.28762 12.1775 1.56723 11.8179L1.64349 11.7316L3.64837 9.72756C3.58541 9.67915 3.52352 9.63003 3.46273 9.58021C2.80319 9.03969 2.28515 8.42556 1.93691 7.75659C1.70315 7.30753 1.87768 6.754 2.32674 6.52023C2.7758 6.28647 3.32934 6.461 3.5631 6.91006C3.79106 7.34797 4.14894 7.77223 4.62483 8.16224C6.0715 9.3479 8.42341 10.0833 11 10.0833C13.5766 10.0833 15.9285 9.3479 17.3752 8.16223C17.8511 7.77221 18.209 7.34795 18.4369 6.91007C18.6707 6.46101 19.2242 6.28647 19.6733 6.52023Z" fill="#121212"/>
</svg>
