<svg width="20" height="20" viewBox="0 0 20 20" fill="none" xmlns="http://www.w3.org/2000/svg">
<path fill-rule="evenodd" clip-rule="evenodd" d="M10.0265 3.33333C10.4868 3.33394 10.8594 3.70752 10.8588 4.16776L10.8522 9.16667H15.8335C16.2937 9.16667 16.6668 9.53976 16.6668 10C16.6668 10.4602 16.2937 10.8333 15.8335 10.8333H10.85L10.8435 15.8344C10.8429 16.2947 10.4693 16.6673 10.0091 16.6667C9.54883 16.6661 9.17623 16.2925 9.17683 15.8322L9.18338 10.8333H4.16683C3.70659 10.8333 3.3335 10.4602 3.3335 10C3.3335 9.53976 3.70659 9.16667 4.16683 9.16667H9.18557L9.19212 4.16557C9.19272 3.70534 9.56631 3.33273 10.0265 3.33333Z" fill="#FF6839"/>
</svg>
