<svg width="24" height="24" viewBox="0 0 24 24" fill="none" xmlns="http://www.w3.org/2000/svg">
<g id="phone-call">
<g id="Vector">
<path d="M16.4227 2.59897C17.598 2.89367 18.7111 3.50098 19.6284 4.41829C20.5457 5.33559 21.1531 6.44871 21.4478 7.62407C21.6527 8.5203 21.7162 9.42658 21.5802 10.3391C21.505 10.8433 21.0354 11.1911 20.5311 11.116C20.0269 11.0408 19.6791 10.5711 19.7542 10.0669C19.8531 9.40392 19.8206 8.7252 19.6571 8.07311L19.6571 8.07308C19.4414 7.21288 18.9976 6.39827 18.323 5.72372C17.6485 5.04919 16.8339 4.60538 15.9737 4.38968C15.3216 4.22617 14.6428 4.1937 13.9798 4.29253C13.4756 4.36769 13.0059 4.01986 12.9308 3.51563C12.6833 1.85563 15.5576 2.38269 16.4227 2.59897Z" fill="#D1D5DB"/>
<path d="M13.8789 5.76994C14.9943 5.60367 16.1753 5.94993 17.0363 6.81088L17.0363 6.8109C17.8974 7.67192 18.2435 8.85305 18.0773 9.96833C18.0021 10.4726 17.5324 10.8204 17.0282 10.7452C16.5239 10.6701 16.1761 10.2004 16.2513 9.69613C16.335 9.13457 16.1607 8.54617 15.7309 8.11636L15.7309 8.11633C15.301 7.68647 14.7126 7.51221 14.1511 7.59591C13.6469 7.67108 13.1772 7.32325 13.102 6.81902C13.0269 6.31479 13.3747 5.8451 13.8789 5.76994Z" fill="#D1D5DB"/>
<path d="M9.86803 10.3971C9.91021 10.5322 9.9717 10.7079 10.0576 10.9088C10.2694 11.4044 10.6196 12.0298 11.1735 12.5837C11.7273 13.1375 12.3512 13.4862 12.8447 13.6965C13.0446 13.7817 13.2193 13.8425 13.3537 13.8842L15.2176 12.9523C15.7629 12.6796 16.4076 12.6937 16.9404 12.9899L18.98 14.1239C19.5659 14.4496 19.9292 15.0673 19.9292 15.7375V18.0791C19.9292 19.8486 18.2523 21.2265 16.4734 20.6262C14.1335 19.8367 10.354 18.2914 7.90996 15.8472C5.46584 13.4032 3.92051 9.62364 3.131 7.28377C2.53078 5.50491 3.9086 3.82805 5.67811 3.82805H8.01935C8.69006 3.82805 9.3079 4.19184 9.63342 4.77807L10.7626 6.81205C11.0582 7.34461 11.0722 7.98882 10.7997 8.53376L9.86803 10.3971Z" fill="#D1D5DB"/>
</g>
</g>
</svg>
