<svg width="22" height="22" viewBox="0 0 22 22" fill="none" xmlns="http://www.w3.org/2000/svg">
<path fill-rule="evenodd" clip-rule="evenodd" d="M2.75 2.74999C2.75 1.73747 3.57081 0.916656 4.58333 0.916656H17.4167C18.4292 0.916656 19.25 1.73748 19.25 2.74999V19.25C19.25 20.2625 18.4292 21.0833 17.4167 21.0833H4.58333C3.57082 21.0833 2.75 20.2625 2.75 19.25V2.74999ZM17.4167 2.74999H4.58333V12.8333H17.4167V2.74999ZM17.4167 14.6667H4.58333V19.25H17.4167V14.6667ZM9.16667 16.9583C9.16667 16.4521 9.57707 16.0417 10.0833 16.0417H11.9167C12.4229 16.0417 12.8333 16.4521 12.8333 16.9583C12.8333 17.4646 12.4229 17.875 11.9167 17.875H10.0833C9.57707 17.875 9.16667 17.4646 9.16667 16.9583Z" fill="#FF6839"/>
</svg>
