<svg width="25" height="24" viewBox="0 0 25 24" fill="none" xmlns="http://www.w3.org/2000/svg">
<path d="M7.19971 6C7.19971 3.23858 9.43828 1 12.1997 1C14.9611 1 17.1997 3.23858 17.1997 6C17.1997 8.76142 14.9611 11 12.1997 11C9.43828 11 7.19971 8.76142 7.19971 6Z" fill="#6B7280"/>
<path d="M12.1997 12C6.67687 12 2.19971 16.4772 2.19971 22C2.19971 22.5523 2.64742 23 3.19971 23C3.75199 23 4.19971 22.5523 4.19971 22C4.19971 17.5817 7.78144 14 12.1997 14C16.618 14 20.1997 17.5817 20.1997 22C20.1997 22.5523 20.6474 23 21.1997 23C21.752 23 22.1997 22.5523 22.1997 22C22.1997 16.4772 17.7225 12 12.1997 12Z" fill="#6B7280"/>
</svg>
