<svg width="22" height="22" viewBox="0 0 22 22" fill="none" xmlns="http://www.w3.org/2000/svg">
<g id="eyes">
<path id="Vector (Stroke)" fill-rule="evenodd" clip-rule="evenodd" d="M11.004 2.29163C11.5102 2.29163 11.9206 2.70203 11.9206 3.20829V5.08815C12.9594 5.19315 13.9427 5.47059 14.8425 5.86644L15.583 4.83324C15.8779 4.42175 16.4505 4.32725 16.862 4.62217C17.2735 4.91708 17.368 5.48974 17.0731 5.90123L16.4596 6.75732C16.8034 6.98837 17.1276 7.23565 17.4299 7.49456C19.0228 8.85904 20.1666 10.6947 20.1666 12.375C20.1666 14.0552 19.0228 15.8909 17.4299 17.2554C15.801 18.6507 13.5335 19.7083 10.9999 19.7083C8.46612 19.7083 6.19862 18.6499 4.56986 17.2543C2.97717 15.8897 1.83325 14.054 1.83325 12.375C1.83325 10.696 2.97717 8.86029 4.56986 7.49563C4.98107 7.1433 5.433 6.81245 5.91964 6.5147L5.33403 5.69758C5.03913 5.28608 5.13364 4.71343 5.54514 4.41852C5.95663 4.12361 6.52929 4.21812 6.82419 4.62962L7.58442 5.69039C8.36767 5.38751 9.20761 5.17555 10.0873 5.08737V3.20829C10.0873 2.70203 10.4977 2.29163 11.004 2.29163ZM10.9999 6.87497C8.97738 6.87497 7.11988 7.72498 5.76272 8.88782C4.3695 10.0816 3.66659 11.4542 3.66659 12.375C3.66659 13.2957 4.3695 14.6684 5.76272 15.8621C7.11988 17.025 8.97738 17.875 10.9999 17.875C13.0226 17.875 14.8802 17.0255 16.2372 15.863C17.6302 14.6698 18.3333 13.2971 18.3333 12.375C18.3333 11.4528 17.6302 10.0802 16.2372 8.8869C14.8802 7.72446 13.0226 6.87497 10.9999 6.87497ZM7.33325 12.375C7.33325 10.3499 8.97488 8.7083 10.9999 8.7083C13.025 8.7083 14.6666 10.3499 14.6666 12.375C14.6666 14.4 13.025 16.0416 10.9999 16.0416C8.97488 16.0416 7.33325 14.4 7.33325 12.375ZM10.9999 10.5416C9.9874 10.5416 9.16658 11.3625 9.16658 12.375C9.16658 13.3875 9.9874 14.2083 10.9999 14.2083C12.0124 14.2083 12.8333 13.3875 12.8333 12.375C12.8333 11.3625 12.0124 10.5416 10.9999 10.5416Z" fill="#4B5563"/>
</g>
</svg>
