<svg width="22" height="22" viewBox="0 0 22 22" fill="none" xmlns="http://www.w3.org/2000/svg">
<g id="picture-one">
<g id="Vector">
<path fill-rule="evenodd" clip-rule="evenodd" d="M5.04188 8.25016C5.04188 6.47826 6.47831 5.04183 8.25022 5.04183C10.0221 5.04183 11.4585 6.47826 11.4585 8.25016C11.4585 10.0221 10.0221 11.4585 8.25022 11.4585C6.47831 11.4585 5.04188 10.0221 5.04188 8.25016ZM8.25022 6.87516C7.49083 6.87516 6.87522 7.49078 6.87522 8.25016C6.87522 9.00954 7.49083 9.62516 8.25022 9.62516C9.0096 9.62516 9.62522 9.00954 9.62522 8.25016C9.62522 7.49078 9.0096 6.87516 8.25022 6.87516Z" fill="#4B5563"/>
<path fill-rule="evenodd" clip-rule="evenodd" d="M1.83355 4.12516C1.83355 2.85951 2.85956 1.8335 4.12522 1.8335H17.8752C19.1409 1.8335 20.1669 2.85952 20.1669 4.12516V16.4965C20.1669 16.4991 20.1669 16.5017 20.1669 16.5043V17.8752C20.1669 19.1408 19.1409 20.1668 17.8752 20.1668H4.12522C2.85957 20.1668 1.83355 19.1408 1.83355 17.8752V16.0524C1.83348 16.0458 1.83348 16.0393 1.83355 16.0327V4.12516ZM3.66688 16.5002V17.8752C3.66688 18.1283 3.87208 18.3335 4.12522 18.3335H17.8752C18.1284 18.3335 18.3335 18.1283 18.3335 17.8752V16.9057L14.2055 13.1529L10.2384 16.7232C9.89611 17.0313 9.37833 17.0375 9.02866 16.7378L6.37862 14.4664L3.66688 16.5002ZM18.3335 14.428L14.8252 11.2386C14.4768 10.9219 13.9452 10.9206 13.5953 11.2355L9.61046 14.8219L7.01344 12.5958C6.68723 12.3162 6.2106 12.3007 5.86688 12.5585L3.66688 14.2085V4.12516C3.66688 3.87203 3.87209 3.66683 4.12522 3.66683H17.8752C18.1284 3.66683 18.3335 3.87202 18.3335 4.12516V14.428Z" fill="#4B5563"/>
</g>
</g>
</svg>
