<svg width="24" height="24" viewBox="0 0 24 24" fill="none" xmlns="http://www.w3.org/2000/svg">
<g id="people-plus-one">
<g id="Vector">
<path d="M9.5 4C8.11929 4 7 5.11929 7 6.5C7 7.88072 8.11928 9 9.5 9C10.8807 9 12 7.88072 12 6.5C12 5.11929 10.8807 4 9.5 4Z" fill="#E5F9FF"/>
<path d="M3.32711 16.638C3.61472 16.0735 4.07366 15.6146 4.63813 15.327C4.90149 15.1928 5.24922 15.1006 5.85437 15.0512C6.47121 15.0008 7.26352 15 8.40012 15H10.6001C11.7367 15 12.529 15.0008 13.1459 15.0512C13.751 15.1006 14.0987 15.1928 14.3621 15.327C14.9265 15.6146 15.3855 16.0736 15.6732 16.638C15.8073 16.9014 15.8995 17.2491 15.9489 17.8542C15.9932 18.396 15.9992 19.0731 16 20H3.00024C3.00105 19.0731 3.00703 18.396 3.0513 17.8543C3.10074 17.2491 3.19292 16.9014 3.32711 16.638Z" fill="#E5F9FF"/>
</g>
<g id="Vector_2">
<path fill-rule="evenodd" clip-rule="evenodd" d="M5 6.5C5 4.01472 7.01471 2 9.5 2C11.9853 2 14 4.01472 14 6.5C14 8.98528 11.9853 11 9.5 11C7.01472 11 5 8.98528 5 6.5ZM9.5 4C8.11929 4 7 5.11929 7 6.5C7 7.88072 8.11928 9 9.5 9C10.8807 9 12 7.88072 12 6.5C12 5.11929 10.8807 4 9.5 4Z" fill="#38D0FF"/>
<path fill-rule="evenodd" clip-rule="evenodd" d="M10.6428 13H8.3572C7.27342 13 6.39926 13 5.69139 13.0578C4.96255 13.1174 4.32234 13.2432 3.73005 13.5449C2.78923 14.0243 2.02433 14.7893 1.54497 15.7301C1.24318 16.3224 1.11737 16.9625 1.05782 17.6914C0.999983 18.3993 0.999991 19.2734 1 20.3572V21C1 21.5523 1.44772 22 2 22H17C17.5523 22 18 21.5523 18 21V20.3572C18 19.2734 18 18.3992 17.9422 17.6914C17.8826 16.9625 17.7568 16.3223 17.4551 15.7301C16.9757 14.7892 16.2107 14.0243 15.2699 13.5449C14.6776 13.2432 14.0375 13.1174 13.3086 13.0578C12.6007 13 11.7266 13 10.6428 13ZM3.32711 16.638C3.61472 16.0736 4.07366 15.6146 4.63813 15.327C4.90149 15.1928 5.24922 15.1006 5.85437 15.0512C6.47121 15.0008 7.26352 15 8.40012 15H10.6001C11.7367 15 12.529 15.0008 13.1459 15.0512C13.751 15.1006 14.0987 15.1928 14.3621 15.327C14.9265 15.6146 15.3855 16.0736 15.6732 16.638C15.8073 16.9014 15.8995 17.2491 15.9489 17.8542C15.9932 18.396 15.9992 19.0731 16 20H3.00024C3.00105 19.0731 3.00703 18.396 3.0513 17.8543C3.10074 17.2491 3.19292 16.9014 3.32711 16.638Z" fill="#38D0FF"/>
<path d="M20 6.5C20 5.94772 19.5523 5.5 19 5.5C18.4477 5.5 18 5.94772 18 6.5V8.5H16C15.4477 8.5 15 8.94772 15 9.5C15 10.0523 15.4477 10.5 16 10.5H18V12.5C18 13.0523 18.4477 13.5 19 13.5C19.5523 13.5 20 13.0523 20 12.5V10.5H22C22.5523 10.5 23 10.0523 23 9.5C23 8.94772 22.5523 8.5 22 8.5H20V6.5Z" fill="#38D0FF"/>
</g>
</g>
</svg>
