<svg width="24" height="24" viewBox="0 0 24 24" fill="none" xmlns="http://www.w3.org/2000/svg">
<g id="wechat">
<g id="Vector">
<path d="M8.6875 9.10003C8.6875 9.72598 8.1838 10.2334 7.5625 10.2334C6.9412 10.2334 6.4375 9.72598 6.4375 9.10003C6.4375 8.47413 6.9412 7.96667 7.5625 7.96667C8.1838 7.96667 8.6875 8.47413 8.6875 9.10003Z" fill="#26B246"/>
<path d="M13.1875 9.10003C13.1875 9.72598 12.6838 10.2334 12.0625 10.2334C11.4412 10.2334 10.9375 9.72598 10.9375 9.10003C10.9375 8.47413 11.4412 7.96667 12.0625 7.96667C12.6838 7.96667 13.1875 8.47413 13.1875 9.10003Z" fill="#26B246"/>
<path d="M13.625 14.55C13.625 15.0194 14.0028 15.4 14.4688 15.4C14.9347 15.4 15.3125 15.0194 15.3125 14.55C15.3125 14.0805 14.9347 13.7 14.4688 13.7C14.0028 13.7 13.625 14.0805 13.625 14.55Z" fill="#26B246"/>
<path d="M17 14.55C17 15.0194 17.3778 15.4 17.8438 15.4C18.3097 15.4 18.6875 15.0194 18.6875 14.55C18.6875 14.0805 18.3097 13.7 17.8438 13.7C17.3778 13.7 17 14.0805 17 14.55Z" fill="#26B246"/>
<path fill-rule="evenodd" clip-rule="evenodd" d="M1.5 11C1.5 6.02942 5.52942 2 10.5 2C15.2684 2 19.1705 5.70813 19.4802 10.3984C21.2901 11.4932 22.5 13.4803 22.5 15.75C22.5 16.5857 22.3355 17.3852 22.0363 18.1162L22.4866 20.8367C22.5477 21.2059 22.3975 21.5784 22.0973 21.802C21.7972 22.0255 21.3973 22.0628 21.061 21.8985L19.4575 21.1151C18.5195 21.6769 17.4215 22 16.25 22C14.4128 22 12.7608 21.2073 11.6172 19.9453C10.3233 20.0989 8.98614 19.9597 7.61593 19.5503L4.39987 20.9317C4.0639 21.076 3.67597 21.0254 3.38823 20.7998C3.10048 20.5742 2.9588 20.2096 3.01875 19.8489L3.54091 16.7075C2.26618 15.1547 1.5 13.1659 1.5 11ZM10.4189 18.0043C10.1484 17.3049 10 16.5448 10 15.75C10 12.2982 12.7982 9.5 16.25 9.5C16.6287 9.5 16.9995 9.53368 17.3596 9.59821C16.7105 6.4041 13.8859 4 10.5 4C6.63398 4 3.5 7.13398 3.5 11C3.5 12.825 4.19706 14.4849 5.34121 15.7315C5.54928 15.9582 5.64138 16.2681 5.59093 16.5717L5.29168 18.372L7.16785 17.5661C7.3929 17.4695 7.6456 17.4587 7.87802 17.536C8.77304 17.8336 9.61841 17.9862 10.4189 18.0043ZM12 15.75C12 13.4028 13.9028 11.5 16.25 11.5C18.5972 11.5 20.5 13.4028 20.5 15.75C20.5 16.395 20.357 17.0038 20.1019 17.5488C20.0542 17.6467 20.0221 17.753 20.0085 17.8637C19.9961 17.9639 19.9992 18.0643 20.0166 18.1616L20.1968 19.2503L19.8387 19.0753C19.6669 18.9871 19.473 18.9506 19.2818 18.9694C19.1468 18.9827 19.0132 19.0237 18.8897 19.0935C18.8474 19.1173 18.8068 19.1442 18.7681 19.1741C18.0634 19.6934 17.194 20 16.25 20C13.9028 20 12 18.0972 12 15.75Z" fill="#26B246"/>
</g>
<g id="Vector_2">
<path fill-rule="evenodd" clip-rule="evenodd" d="M10 15.75C10 16.5448 10.1484 17.3049 10.4189 18.0043C9.61841 17.9862 8.77304 17.8336 7.87802 17.536C7.6456 17.4587 7.3929 17.4695 7.16785 17.5661L5.29168 18.372L5.59093 16.5717C5.64138 16.2681 5.54928 15.9582 5.34121 15.7315C4.19706 14.4849 3.5 12.825 3.5 11C3.5 7.13398 6.63398 4 10.5 4C13.8859 4 16.7105 6.4041 17.3596 9.59821C16.9995 9.53368 16.6287 9.5 16.25 9.5C12.7982 9.5 10 12.2982 10 15.75ZM8.6875 9.10003C8.6875 9.72598 8.1838 10.2334 7.5625 10.2334C6.9412 10.2334 6.4375 9.72598 6.4375 9.10003C6.4375 8.47413 6.9412 7.96667 7.5625 7.96667C8.1838 7.96667 8.6875 8.47413 8.6875 9.10003ZM13.1875 9.10003C13.1875 9.72598 12.6838 10.2334 12.0625 10.2334C11.4412 10.2334 10.9375 9.72598 10.9375 9.10003C10.9375 8.47413 11.4412 7.96667 12.0625 7.96667C12.6838 7.96667 13.1875 8.47413 13.1875 9.10003Z" fill="#E5FFEB"/>
<path fill-rule="evenodd" clip-rule="evenodd" d="M16.25 11.5C13.9028 11.5 12 13.4028 12 15.75C12 18.0972 13.9028 20 16.25 20C17.194 20 18.0634 19.6934 18.7681 19.1741C18.8068 19.1442 18.8474 19.1173 18.8897 19.0935C19.0132 19.0237 19.1468 18.9827 19.2818 18.9694C19.473 18.9506 19.6669 18.9871 19.8387 19.0753L20.1968 19.2503L20.0166 18.1616C19.9992 18.0643 19.9961 17.9639 20.0085 17.8637C20.0221 17.753 20.0542 17.6467 20.1019 17.5488C20.357 17.0038 20.5 16.395 20.5 15.75C20.5 13.4028 18.5972 11.5 16.25 11.5ZM13.625 14.55C13.625 15.0194 14.0028 15.4 14.4688 15.4C14.9347 15.4 15.3125 15.0194 15.3125 14.55C15.3125 14.0805 14.9347 13.7 14.4688 13.7C14.0028 13.7 13.625 14.0805 13.625 14.55ZM17 14.55C17 15.0194 17.3778 15.4 17.8438 15.4C18.3097 15.4 18.6875 15.0194 18.6875 14.55C18.6875 14.0805 18.3097 13.7 17.8438 13.7C17.3778 13.7 17 14.0805 17 14.55Z" fill="#E5FFEB"/>
</g>
</g>
</svg>
