<svg width="22" height="22" viewBox="0 0 22 22" fill="none" xmlns="http://www.w3.org/2000/svg">
<g id="search">
<path id="Vector (Stroke)" fill-rule="evenodd" clip-rule="evenodd" d="M0.916504 9.625C0.916504 4.81554 4.81538 0.916668 9.62484 0.916668C14.4343 0.916668 18.3332 4.81554 18.3332 9.625C18.3332 11.6995 17.6077 13.6047 16.3967 15.1005L19.7638 18.4676C20.1218 18.8256 20.1218 19.406 19.7638 19.7639C19.4058 20.1219 18.8254 20.1219 18.4674 19.7639L15.1004 16.3969C13.6045 17.6079 11.6994 18.3333 9.62484 18.3333C4.81538 18.3333 0.916504 14.4345 0.916504 9.625ZM9.62484 2.75C5.8279 2.75 2.74984 5.82806 2.74984 9.625C2.74984 13.4219 5.8279 16.5 9.62484 16.5C13.4218 16.5 16.4998 13.4219 16.4998 9.625C16.4998 5.82806 13.4218 2.75 9.62484 2.75ZM6.38393 5.92572C7.21238 5.09733 8.35946 4.58333 9.62484 4.58333C10.8902 4.58333 12.0373 5.09733 12.8657 5.92574C13.2237 6.28372 13.2237 6.86412 12.8657 7.2221C12.5077 7.58008 11.9273 7.58008 11.5694 7.2221C11.0707 6.72346 10.3845 6.41667 9.62484 6.41667C8.86521 6.41667 8.17895 6.72346 7.68025 7.22213C7.32226 7.58009 6.74186 7.58007 6.38389 7.22208C6.02592 6.86409 6.02594 6.28369 6.38393 5.92572Z" fill="#4B5563"/>
</g>
</svg>
