<svg width="12" height="12" viewBox="0 0 12 12" fill="none" xmlns="http://www.w3.org/2000/svg">
<g id="star">
<path id="Vector" d="M6.44754 1.02772C6.3629 0.857184 6.18876 0.749513 5.99838 0.750002C5.808 0.750491 5.63441 0.859055 5.55065 1.03002L4.1385 3.91244L0.928262 4.37795C0.740016 4.40525 0.583563 4.53699 0.524623 4.71785C0.465683 4.8987 0.514466 5.09733 0.65048 5.2303L2.97662 7.50444L2.42117 10.6634C2.38805 10.8517 2.46525 11.0425 2.62004 11.1547C2.77483 11.267 2.98009 11.2812 3.14883 11.1912L5.99969 9.6714L8.85119 11.1912C9.01983 11.2811 9.22495 11.267 9.3797 11.1549C9.53446 11.0428 9.61178 10.8523 9.57892 10.664L9.02745 7.50444L11.3499 5.23C11.4857 5.09701 11.5343 4.89853 11.4754 4.71783C11.4165 4.53712 11.2602 4.40543 11.0722 4.37801L7.87924 3.91244L6.44754 1.02772Z" fill="#FFCB39"/>
</g>
</svg>
