<svg width="44" height="44" viewBox="0 0 44 44" fill="none" xmlns="http://www.w3.org/2000/svg">
<path d="M0 22C0 9.84974 9.84974 0 22 0C34.1503 0 44 9.84974 44 22C44 34.1503 34.1503 44 22 44C9.84974 44 0 34.1503 0 22Z" fill="#EEEBF9"/>
<path opacity="0.2" d="M20.5 15.25V19.75C20.5 19.9489 20.421 20.1397 20.2803 20.2803C20.1397 20.421 19.9489 20.5 19.75 20.5H15.25C15.0511 20.5 14.8603 20.421 14.7197 20.2803C14.579 20.1397 14.5 19.9489 14.5 19.75V15.25C14.5 15.0511 14.579 14.8603 14.7197 14.7197C14.8603 14.579 15.0511 14.5 15.25 14.5H19.75C19.9489 14.5 20.1397 14.579 20.2803 14.7197C20.421 14.8603 20.5 15.0511 20.5 15.25ZM19.75 23.5H15.25C15.0511 23.5 14.8603 23.579 14.7197 23.7197C14.579 23.8603 14.5 24.0511 14.5 24.25V28.75C14.5 28.9489 14.579 29.1397 14.7197 29.2803C14.8603 29.421 15.0511 29.5 15.25 29.5H19.75C19.9489 29.5 20.1397 29.421 20.2803 29.2803C20.421 29.1397 20.5 28.9489 20.5 28.75V24.25C20.5 24.0511 20.421 23.8603 20.2803 23.7197C20.1397 23.579 19.9489 23.5 19.75 23.5ZM28.75 14.5H24.25C24.0511 14.5 23.8603 14.579 23.7197 14.7197C23.579 14.8603 23.5 15.0511 23.5 15.25V19.75C23.5 19.9489 23.579 20.1397 23.7197 20.2803C23.8603 20.421 24.0511 20.5 24.25 20.5H28.75C28.9489 20.5 29.1397 20.421 29.2803 20.2803C29.421 20.1397 29.5 19.9489 29.5 19.75V15.25C29.5 15.0511 29.421 14.8603 29.2803 14.7197C29.1397 14.579 28.9489 14.5 28.75 14.5Z" fill="#8F7CD8"/>
<path d="M19.75 13.75H15.25C14.8522 13.75 14.4706 13.908 14.1893 14.1893C13.908 14.4706 13.75 14.8522 13.75 15.25V19.75C13.75 20.1478 13.908 20.5294 14.1893 20.8107C14.4706 21.092 14.8522 21.25 15.25 21.25H19.75C20.1478 21.25 20.5294 21.092 20.8107 20.8107C21.092 20.5294 21.25 20.1478 21.25 19.75V15.25C21.25 14.8522 21.092 14.4706 20.8107 14.1893C20.5294 13.908 20.1478 13.75 19.75 13.75ZM19.75 19.75H15.25V15.25H19.75V19.75ZM19.75 22.75H15.25C14.8522 22.75 14.4706 22.908 14.1893 23.1893C13.908 23.4706 13.75 23.8522 13.75 24.25V28.75C13.75 29.1478 13.908 29.5294 14.1893 29.8107C14.4706 30.092 14.8522 30.25 15.25 30.25H19.75C20.1478 30.25 20.5294 30.092 20.8107 29.8107C21.092 29.5294 21.25 29.1478 21.25 28.75V24.25C21.25 23.8522 21.092 23.4706 20.8107 23.1893C20.5294 22.908 20.1478 22.75 19.75 22.75ZM19.75 28.75H15.25V24.25H19.75V28.75ZM28.75 13.75H24.25C23.8522 13.75 23.4706 13.908 23.1893 14.1893C22.908 14.4706 22.75 14.8522 22.75 15.25V19.75C22.75 20.1478 22.908 20.5294 23.1893 20.8107C23.4706 21.092 23.8522 21.25 24.25 21.25H28.75C29.1478 21.25 29.5294 21.092 29.8107 20.8107C30.092 20.5294 30.25 20.1478 30.25 19.75V15.25C30.25 14.8522 30.092 14.4706 29.8107 14.1893C29.5294 13.908 29.1478 13.75 28.75 13.75ZM28.75 19.75H24.25V15.25H28.75V19.75ZM22.75 26.5V23.5C22.75 23.3011 22.829 23.1103 22.9697 22.9697C23.1103 22.829 23.3011 22.75 23.5 22.75C23.6989 22.75 23.8897 22.829 24.0303 22.9697C24.171 23.1103 24.25 23.3011 24.25 23.5V26.5C24.25 26.6989 24.171 26.8897 24.0303 27.0303C23.8897 27.171 23.6989 27.25 23.5 27.25C23.3011 27.25 23.1103 27.171 22.9697 27.0303C22.829 26.8897 22.75 26.6989 22.75 26.5ZM30.25 25C30.25 25.1989 30.171 25.3897 30.0303 25.5303C29.8897 25.671 29.6989 25.75 29.5 25.75H27.25V29.5C27.25 29.6989 27.171 29.8897 27.0303 30.0303C26.8897 30.171 26.6989 30.25 26.5 30.25H23.5C23.3011 30.25 23.1103 30.171 22.9697 30.0303C22.829 29.8897 22.75 29.6989 22.75 29.5C22.75 29.3011 22.829 29.1103 22.9697 28.9697C23.1103 28.829 23.3011 28.75 23.5 28.75H25.75V23.5C25.75 23.3011 25.829 23.1103 25.9697 22.9697C26.1103 22.829 26.3011 22.75 26.5 22.75C26.6989 22.75 26.8897 22.829 27.0303 22.9697C27.171 23.1103 27.25 23.3011 27.25 23.5V24.25H29.5C29.6989 24.25 29.8897 24.329 30.0303 24.4697C30.171 24.6103 30.25 24.8011 30.25 25ZM30.25 28V29.5C30.25 29.6989 30.171 29.8897 30.0303 30.0303C29.8897 30.171 29.6989 30.25 29.5 30.25C29.3011 30.25 29.1103 30.171 28.9697 30.0303C28.829 29.8897 28.75 29.6989 28.75 29.5V28C28.75 27.8011 28.829 27.6103 28.9697 27.4697C29.1103 27.329 29.3011 27.25 29.5 27.25C29.6989 27.25 29.8897 27.329 30.0303 27.4697C30.171 27.6103 30.25 27.8011 30.25 28Z" fill="#6045C8"/>
</svg>
