<svg width="22" height="22" viewBox="0 0 22 22" fill="none" xmlns="http://www.w3.org/2000/svg">
<g id="send">
<path id="Vector (Stroke)" fill-rule="evenodd" clip-rule="evenodd" d="M20.3565 1.64351C20.6055 1.89251 20.6899 2.26214 20.5735 2.59451L14.4777 20.0112C14.3535 20.3659 14.0254 20.6089 13.6499 20.6243C13.2743 20.6396 12.9275 20.4241 12.7748 20.0807L9.4347 12.5653L1.91938 9.22519C1.57592 9.07254 1.36045 8.7257 1.37577 8.35016C1.39109 7.97462 1.6341 7.64648 1.98885 7.52232L19.4055 1.42649C19.7379 1.31016 20.1075 1.39451 20.3565 1.64351ZM11.2225 12.0739L13.5111 17.2232L17.5162 5.78024L11.2225 12.0739ZM16.2198 4.48387L4.77682 8.48891L9.92616 10.7775L16.2198 4.48387Z" fill="#6B7280"/>
</g>
</svg>
