<svg width="24" height="24" viewBox="0 0 24 24" fill="none" xmlns="http://www.w3.org/2000/svg">
<g id="share-two">
<path id="Vector (Stroke)" fill-rule="evenodd" clip-rule="evenodd" d="M12.6173 1.07615C12.991 0.921369 13.4211 1.00692 13.7071 1.29292L22.7071 10.2929C22.8981 10.484 23.0038 10.7442 22.9999 11.0143C22.996 11.2845 22.883 11.5415 22.6866 11.727L13.6866 20.227C13.3963 20.5012 12.9708 20.5764 12.6042 20.4183C12.2375 20.2603 12 19.8993 12 19.5V15.0588C9.40656 15.3676 7.47979 16.8483 6.13069 18.405C5.37444 19.2776 4.81867 20.1543 4.45228 20.8138C4.26969 21.1425 4.13574 21.4143 4.04876 21.6006C4.00531 21.6938 3.9737 21.7653 3.9537 21.8117C3.9437 21.8349 3.93662 21.8517 3.93242 21.8619L3.92848 21.8714C3.75025 22.3161 3.28138 22.5726 2.81089 22.482C2.34017 22.3913 2 21.9794 2 21.5C2 17.1891 2.62687 13.4541 4.34562 10.7729C5.96905 8.24031 8.48907 6.76413 12 6.53228V2.00003C12 1.59557 12.2436 1.23093 12.6173 1.07615ZM4.21959 17.576C4.34679 17.4165 4.48 17.2558 4.61931 17.0951C6.35222 15.0956 9.10463 13 13 13C13.5523 13 14 13.4477 14 14V17.1801L20.5653 10.9795L14 4.41424V7.50003C14 8.05231 13.5523 8.50003 13 8.50003C9.53696 8.50003 7.38075 9.74405 6.02938 11.8522C5.09827 13.3047 4.51049 15.2269 4.21959 17.576Z" fill="#FF6839"/>
<path id="Vector (Stroke)_2" d="M4.6193 17.0949C4.47999 17.2557 4.34678 17.4163 4.21957 17.5758C4.51048 15.2267 5.09826 13.3045 6.02937 11.852C7.38074 9.74387 9.53695 8.49985 13 8.49985C13.5523 8.49985 14 8.05213 14 7.49985V4.41406L20.5653 10.9794L14 17.1799V13.9998C14 13.4476 13.5523 12.9998 13 12.9998C9.10461 12.9998 6.35221 15.0954 4.6193 17.0949Z" fill="#FFEBE5"/>
</g>
</svg>
