<svg width="20" height="20" viewBox="0 0 20 20" fill="none" xmlns="http://www.w3.org/2000/svg">
<g id="scan-code">
<path id="Vector (Stroke)" fill-rule="evenodd" clip-rule="evenodd" d="M1.6665 2.50008C1.6665 2.03984 2.0396 1.66675 2.49984 1.66675H6.24984C6.71007 1.66675 7.08317 2.03984 7.08317 2.50008C7.08317 2.96032 6.71007 3.33341 6.24984 3.33341H3.33317V6.25008C3.33317 6.71032 2.96007 7.08342 2.49984 7.08342C2.0396 7.08342 1.6665 6.71032 1.6665 6.25008V2.50008ZM12.9165 2.50008C12.9165 2.03984 13.2896 1.66675 13.7498 1.66675H17.4998C17.9601 1.66675 18.3332 2.03984 18.3332 2.50008V6.25008C18.3332 6.71032 17.9601 7.08342 17.4998 7.08342C17.0396 7.08342 16.6665 6.71032 16.6665 6.25008V3.33341H13.7498C13.2896 3.33341 12.9165 2.96032 12.9165 2.50008ZM3.33317 10.0001C3.33317 9.53984 3.70627 9.16675 4.1665 9.16675H15.8332C16.2934 9.16675 16.6665 9.53984 16.6665 10.0001C16.6665 10.4603 16.2934 10.8334 15.8332 10.8334H4.1665C3.70627 10.8334 3.33317 10.4603 3.33317 10.0001ZM2.49984 12.9167C2.96007 12.9167 3.33317 13.2898 3.33317 13.7501V16.6667H6.24984C6.71007 16.6667 7.08317 17.0398 7.08317 17.5001C7.08317 17.9603 6.71007 18.3334 6.24984 18.3334H2.49984C2.0396 18.3334 1.6665 17.9603 1.6665 17.5001V13.7501C1.6665 13.2898 2.0396 12.9167 2.49984 12.9167ZM17.4998 12.9167C17.9601 12.9167 18.3332 13.2898 18.3332 13.7501V17.5001C18.3332 17.9603 17.9601 18.3334 17.4998 18.3334H13.7498C13.2896 18.3334 12.9165 17.9603 12.9165 17.5001C12.9165 17.0398 13.2896 16.6667 13.7498 16.6667H16.6665V13.7501C16.6665 13.2898 17.0396 12.9167 17.4998 12.9167Z" fill="#6B7280"/>
</g>
</svg>
