<svg width="14" height="14" viewBox="0 0 14 14" fill="none" xmlns="http://www.w3.org/2000/svg">
<g id="time">
<path id="Subtract" fill-rule="evenodd" clip-rule="evenodd" d="M0.583496 7.00004C0.583496 3.45621 3.45633 0.583374 7.00016 0.583374C10.544 0.583374 13.4168 3.45621 13.4168 7.00004C13.4168 10.5439 10.544 13.4167 7.00016 13.4167C3.45633 13.4167 0.583496 10.5439 0.583496 7.00004ZM7.58591 3.5001C7.58594 3.17793 7.3248 2.91674 7.00264 2.91671C6.68047 2.91668 6.41928 3.17782 6.41925 3.49998L6.41889 7.00255C6.41888 7.15728 6.48034 7.30568 6.58975 7.41509L9.06291 9.88825C9.29071 10.1161 9.66006 10.1161 9.88787 9.88825C10.1157 9.66044 10.1157 9.29109 9.88787 9.06329L7.58559 6.76101L7.58591 3.5001Z" fill="#6839FF"/>
</g>
</svg>
