<svg width="24" height="24" viewBox="0 0 24 24" fill="none" xmlns="http://www.w3.org/2000/svg">
<g id="book">
<path id="Vector (Stroke)" fill-rule="evenodd" clip-rule="evenodd" d="M7.2 3C5.92321 3 5 3.95525 5 5H4H3C3 2.73104 4.94219 1 7.2 1H20C20.5523 1 21 1.44772 21 2V22C21 22.5523 20.5523 23 20 23H6C4.34314 23 3 21.6568 3 20V5C3 5 3 5 4 5C5 5 5 5 5 5V17.1707C5.31278 17.0602 5.64936 17 6 17H19V3H7.2ZM19 19H7.2C6.58486 19 6.12421 19.0214 5.77471 19.0699C5.68769 19.0819 5.61179 19.0952 5.54564 19.1089C5.22175 19.2744 5 19.6113 5 20C5 20.5523 5.44772 21 6 21H19V19Z" fill="#6839FF"/>
<path id="Vector (Stroke)_2" d="M7.2 3C5.92321 3 5 3.95525 5 5V17.1707C5.31278 17.0602 5.64936 17 6 17H19V3H7.2Z" fill="#EBE5FF"/>
</g>
</svg>
