<svg width="20" height="20" viewBox="0 0 20 20" fill="none" xmlns="http://www.w3.org/2000/svg">
<g id="timer">
<g id="Vector">
<path d="M10 8.33333C10.4602 8.33333 10.8333 8.70642 10.8333 9.16666V11.6667C10.8333 12.1269 10.4602 12.5 10 12.5H7.5C7.03976 12.5 6.66667 12.1269 6.66667 11.6667C6.66667 11.2064 7.03976 10.8333 7.5 10.8333H9.16667V9.16666C9.16667 8.70642 9.53976 8.33333 10 8.33333Z" fill="#B28D26"/>
<path fill-rule="evenodd" clip-rule="evenodd" d="M8.33333 0.833328C7.8731 0.833328 7.5 1.20642 7.5 1.66666C7.5 2.1269 7.8731 2.49999 8.33333 2.49999H9.16667V4.21244C5.41671 4.62697 2.5 7.8062 2.5 11.6667C2.5 15.8088 5.85786 19.1667 10 19.1667C14.1421 19.1667 17.5 15.8088 17.5 11.6667C17.5 9.78948 16.8104 8.07338 15.6706 6.7579L16.4226 6.00592C16.748 5.68048 16.748 5.15284 16.4226 4.82741C16.0972 4.50197 15.5695 4.50197 15.2441 4.82741L14.4457 5.62574C13.4123 4.86388 12.1762 4.36088 10.8333 4.21244V2.49999H11.6667C12.1269 2.49999 12.5 2.1269 12.5 1.66666C12.5 1.20642 12.1269 0.833328 11.6667 0.833328H8.33333ZM4.16667 11.6667C4.16667 8.445 6.77834 5.83333 10 5.83333C13.2217 5.83333 15.8333 8.445 15.8333 11.6667C15.8333 14.8883 13.2217 17.5 10 17.5C6.77834 17.5 4.16667 14.8883 4.16667 11.6667Z" fill="#B28D26"/>
</g>
</g>
</svg>
