<svg width="22" height="22" viewBox="0 0 22 22" fill="none" xmlns="http://www.w3.org/2000/svg">
<g id="user">
<path id="Vector" fill-rule="evenodd" clip-rule="evenodd" d="M11 2.75002C9.48126 2.75002 8.25004 3.98124 8.25004 5.50002C8.25004 7.0188 9.48126 8.25002 11 8.25002C12.5188 8.25002 13.75 7.0188 13.75 5.50002C13.75 3.98124 12.5188 2.75002 11 2.75002ZM6.41671 5.50002C6.41671 2.96872 8.46874 0.916687 11 0.916687C13.5313 0.916687 15.5834 2.96872 15.5834 5.50002C15.5834 8.03133 13.5313 10.0834 11 10.0834C8.46874 10.0834 6.41671 8.03133 6.41671 5.50002ZM1.83337 20.1667C1.83337 15.1041 5.93744 11 11 11C16.0626 11 20.1667 15.1041 20.1667 20.1667C20.1667 20.6729 19.7563 21.0834 19.25 21.0834C18.7438 21.0834 18.3334 20.6729 18.3334 20.1667C18.3334 16.1166 15.0501 12.8334 11 12.8334C6.94996 12.8334 3.66671 16.1166 3.66671 20.1667C3.66671 20.6729 3.2563 21.0834 2.75004 21.0834C2.24378 21.0834 1.83337 20.6729 1.83337 20.1667Z" fill="#4B5563"/>
</g>
</svg>
