<svg width="20" height="20" viewBox="0 0 20 20" fill="none" xmlns="http://www.w3.org/2000/svg">
    <g id="view-grid-list">
        <path id="Vector (Stroke)" fill-rule="evenodd" clip-rule="evenodd"
            d="M2.91683 2.49992C2.68671 2.49992 2.50016 2.68647 2.50016 2.91658V17.0833C2.50016 17.3134 2.68671 17.4999 2.91683 17.4999H17.0835C17.3136 17.4999 17.5002 17.3134 17.5002 17.0833V2.91658C17.5002 2.68647 17.3136 2.49992 17.0835 2.49992H2.91683ZM0.833496 2.91658C0.833496 1.76599 1.76624 0.833252 2.91683 0.833252H17.0835C18.2341 0.833252 19.1668 1.76599 19.1668 2.91658V17.0833C19.1668 18.2338 18.2341 19.1666 17.0835 19.1666H2.91683C1.76624 19.1666 0.833496 18.2338 0.833496 17.0833V2.91658ZM4.16683 4.99992C4.16683 4.53968 4.53993 4.16658 5.00016 4.16658H8.3335C8.79373 4.16658 9.16683 4.53968 9.16683 4.99992V8.33325C9.16683 8.79349 8.79373 9.16658 8.3335 9.16658H5.00016C4.53993 9.16658 4.16683 8.79349 4.16683 8.33325V4.99992ZM5.8335 5.83325V7.49992H7.50016V5.83325H5.8335ZM10.8335 4.99992C10.8335 4.53968 11.2066 4.16658 11.6668 4.16658H15.0002C15.4604 4.16658 15.8335 4.53968 15.8335 4.99992C15.8335 5.46016 15.4604 5.83325 15.0002 5.83325H11.6668C11.2066 5.83325 10.8335 5.46016 10.8335 4.99992ZM10.8335 8.33325C10.8335 7.87301 11.2066 7.49992 11.6668 7.49992H15.0002C15.4604 7.49992 15.8335 7.87301 15.8335 8.33325C15.8335 8.79349 15.4604 9.16658 15.0002 9.16658H11.6668C11.2066 9.16658 10.8335 8.79349 10.8335 8.33325ZM4.16683 11.6666C4.16683 11.2063 4.53993 10.8333 5.00016 10.8333H8.3335C8.79373 10.8333 9.16683 11.2063 9.16683 11.6666V14.9999C9.16683 15.4602 8.79373 15.8333 8.3335 15.8333H5.00016C4.53993 15.8333 4.16683 15.4602 4.16683 14.9999V11.6666ZM5.8335 12.4999V14.1666H7.50016V12.4999H5.8335ZM10.8335 11.6666C10.8335 11.2063 11.2066 10.8333 11.6668 10.8333H15.0002C15.4604 10.8333 15.8335 11.2063 15.8335 11.6666C15.8335 12.1268 15.4604 12.4999 15.0002 12.4999H11.6668C11.2066 12.4999 10.8335 12.1268 10.8335 11.6666ZM10.8335 14.9999C10.8335 14.5397 11.2066 14.1666 11.6668 14.1666H15.0002C15.4604 14.1666 15.8335 14.5397 15.8335 14.9999C15.8335 15.4602 15.4604 15.8333 15.0002 15.8333H11.6668C11.2066 15.8333 10.8335 15.4602 10.8335 14.9999Z"
            fill="#6B7280" />
    </g>
</svg>
