<svg width="24" height="24" viewBox="0 0 24 24" fill="none" xmlns="http://www.w3.org/2000/svg">
<g id="wechat">
<path id="Vector" fill-rule="evenodd" clip-rule="evenodd" d="M11 2C6.02942 2 2 6.02942 2 11C2 13.1659 2.76618 15.1547 4.04091 16.7075L3.51875 19.8489C3.4588 20.2096 3.60048 20.5742 3.88823 20.7998C4.17597 21.0254 4.5639 21.076 4.89987 20.9317L8.11593 19.5503C9.48614 19.9597 10.8233 20.0989 12.1172 19.9453C13.2608 21.2073 14.9128 22 16.75 22C17.9215 22 19.0195 21.6769 19.9575 21.1151L21.561 21.8985C21.8972 22.0628 22.2971 22.0256 22.5973 21.802C22.8974 21.5784 23.0476 21.206 22.9865 20.8367L22.5362 18.1163C22.8354 17.3853 23 16.5858 23 15.75C23 13.4803 21.7901 11.4932 19.9802 10.3984C19.6705 5.70813 15.7684 2 11 2ZM15.7552 14.8585C15.7922 14.7628 15.8125 14.6588 15.8125 14.55C15.8125 14.0805 15.4347 13.7 14.9688 13.7C14.5028 13.7 14.125 14.0805 14.125 14.55C14.125 15.0194 14.5028 15.4 14.9688 15.4C15.1375 15.4 15.2947 15.35 15.4265 15.2641C15.5744 15.1677 15.6904 15.026 15.7552 14.8585ZM8.0625 10.2334C8.6838 10.2334 9.1875 9.72598 9.1875 9.10003C9.1875 8.47413 8.6838 7.96667 8.0625 7.96667C7.4412 7.96667 6.9375 8.47413 6.9375 9.10003C6.9375 9.72598 7.4412 10.2334 8.0625 10.2334ZM12.5625 10.2334C13.1838 10.2334 13.6875 9.72598 13.6875 9.10003C13.6875 8.47413 13.1838 7.96667 12.5625 7.96667C11.9412 7.96667 11.4375 8.47413 11.4375 9.10003C11.4375 9.72598 11.9412 10.2334 12.5625 10.2334ZM17.5 14.55C17.5 15.0194 17.8778 15.4 18.3438 15.4C18.8097 15.4 19.1875 15.0194 19.1875 14.55C19.1875 14.0805 18.8097 13.7 18.3438 13.7C17.8778 13.7 17.5 14.0805 17.5 14.55Z" fill="#FF6839"/>
</g>
</svg>
