<svg width="22" height="19" viewBox="0 0 22 19" fill="none" xmlns="http://www.w3.org/2000/svg">
<path fill-rule="evenodd" clip-rule="evenodd" d="M2.65144 1.70405C3.182 1.00017 4.04297 0.5 5.25 0.5H12.5C13.0537 0.5 13.9195 0.674992 14.667 1.29057C15.2692 1.7865 15.7278 2.51353 15.9119 3.5H19.5C20.6046 3.5 21.5 4.39543 21.5 5.5V16.5C21.5 17.6046 20.6046 18.5 19.5 18.5H2.5C1.39543 18.5 0.5 17.6046 0.5 16.5V5.5C0.5 4.56758 1.13806 3.7842 2.00138 3.56266C2.01777 3.04033 2.18361 2.32472 2.65144 1.70405ZM13.3955 2.83443C13.5513 2.96268 13.7265 3.16517 13.848 3.5H4.01156C4.03764 3.31906 4.10984 3.09193 4.24856 2.90788C4.393 2.71625 4.65703 2.5 5.25 2.5H12.5C12.6963 2.5 13.0805 2.57501 13.3955 2.83443ZM15.75 11.5C16.1642 11.5 16.5 11.1642 16.5 10.75C16.5 10.3358 16.1642 10 15.75 10C15.3358 10 15 10.3358 15 10.75C15 11.1642 15.3358 11.5 15.75 11.5ZM11.5 7H19.5V9H12.5V12.5H19.5V14.5H11.5C10.9477 14.5 10.5 14.0523 10.5 13.5V8C10.5 7.44772 10.9477 7 11.5 7Z" fill="#6B7280"/>
</svg>
