<svg width="20" height="16" viewBox="0 0 20 16" fill="none" xmlns="http://www.w3.org/2000/svg">
<g id="Vector">
<path d="M0.833374 14.6667C0.833374 14.2064 1.20647 13.8333 1.66671 13.8333H18.3334C18.7936 13.8333 19.1667 14.2064 19.1667 14.6667C19.1667 15.1269 18.7936 15.5 18.3334 15.5H1.66671C1.20647 15.5 0.833374 15.1269 0.833374 14.6667Z" fill="#D1D5DB"/>
<path fill-rule="evenodd" clip-rule="evenodd" d="M2.91671 0.5C1.99623 0.5 1.25004 1.24619 1.25004 2.16667V10.5C1.25004 11.4205 1.99623 12.1667 2.91671 12.1667H17.0834C18.0038 12.1667 18.75 11.4205 18.75 10.5V2.16667C18.75 1.24619 18.0038 0.5 17.0834 0.5H2.91671ZM9.16671 3C8.70647 3 8.33337 3.3731 8.33337 3.83333C8.33337 4.29357 8.70647 4.66667 9.16671 4.66667H10.8334C11.2936 4.66667 11.6667 4.29357 11.6667 3.83333C11.6667 3.3731 11.2936 3 10.8334 3H9.16671Z" fill="#D1D5DB"/>
</g>
</svg>
